<svg width="55" height="55" viewBox="0 0 55 55" fill="none" xmlns="http://www.w3.org/2000/svg">
<path d="M15.9042 11.4582C15.9036 12.6738 15.4201 13.8393 14.5602 14.6984C13.7002 15.5575 12.5342 16.0398 11.3186 16.0392C10.103 16.0386 8.93747 15.5551 8.07836 14.6952C7.21924 13.8352 6.73694 12.6692 6.73755 11.4536C6.73816 10.238 7.22163 9.07248 8.0816 8.21337C8.94157 7.35425 10.1076 6.87195 11.3232 6.87256C12.5388 6.87317 13.7043 7.35664 14.5634 8.21661C15.4225 9.07658 15.9048 10.2426 15.9042 11.4582ZM16.0417 19.4332H6.87505V48.1248H16.0417V19.4332ZM30.525 19.4332H21.4042V48.1248H30.4334V33.0686C30.4334 24.6811 41.3646 23.9019 41.3646 33.0686V48.1248H50.4167V29.9519C50.4167 15.8123 34.2376 16.3394 30.4334 23.2832L30.525 19.4332Z" fill="#FCFAFC"/>
</svg>
