<svg width="55" height="55" viewBox="0 0 55 55" fill="none" xmlns="http://www.w3.org/2000/svg">
<path d="M15.9042 11.4584C15.9036 12.674 15.4201 13.8396 14.5602 14.6987C13.7002 15.5578 12.5342 16.0401 11.3186 16.0395C10.103 16.0389 8.93747 15.5554 8.07836 14.6954C7.21924 13.8355 6.73694 12.6694 6.73755 11.4538C6.73816 10.2383 7.22163 9.07272 8.0816 8.21361C8.94157 7.3545 10.1076 6.8722 11.3232 6.8728C12.5388 6.87341 13.7043 7.35688 14.5634 8.21685C15.4225 9.07682 15.9048 10.2429 15.9042 11.4584ZM16.0417 19.4334H6.87505V48.1251H16.0417V19.4334ZM30.525 19.4334H21.4042V48.1251H30.4334V33.0688C30.4334 24.6813 41.3646 23.9022 41.3646 33.0688V48.1251H50.4167V29.9522C50.4167 15.8126 34.2376 16.3397 30.4334 23.2834L30.525 19.4334Z" fill="#FCDBFF"/>
</svg>
