<svg width="45" height="45" viewBox="0 0 45 45" fill="none" xmlns="http://www.w3.org/2000/svg">
<path d="M13.0125 9.37492C13.012 10.3695 12.6164 11.3231 11.9128 12.026C11.2092 12.7289 10.2551 13.1235 9.26058 13.123C8.26601 13.1226 7.31238 12.727 6.60948 12.0234C5.90657 11.3198 5.51195 10.3657 5.51245 9.37117C5.51295 8.37661 5.90851 7.42298 6.61213 6.72007C7.31574 6.01716 8.26976 5.62255 9.26433 5.62305C10.2589 5.62354 11.2125 6.01911 11.9154 6.72272C12.6183 7.42634 13.0129 8.38036 13.0125 9.37492ZM13.125 15.8999H5.62495V39.3749H13.125V15.8999ZM24.975 15.8999H17.5125V39.3749H24.9V27.0562C24.9 20.1937 33.8437 19.5562 33.8437 27.0562V39.3749H41.25V24.5062C41.25 12.9374 28.0125 13.3687 24.9 19.0499L24.975 15.8999Z" fill="#EB6FF5" fill-opacity="0.88"/>
</svg>
