<svg width="41" height="41" viewBox="0 0 41 41" fill="none" xmlns="http://www.w3.org/2000/svg">
<path d="M30.5 18.4531V32.8281C30.5 33.2385 30.4192 33.6449 30.2621 34.024C30.1051 34.4032 29.8749 34.7477 29.5847 35.0378C29.2945 35.328 28.95 35.5582 28.5709 35.7152C28.1917 35.8723 27.7854 35.9531 27.375 35.9531H8.625C7.7962 35.9531 7.00134 35.6239 6.41529 35.0378C5.82924 34.4518 5.5 33.6569 5.5 32.8281V14.0781C5.5 13.2493 5.82924 12.4545 6.41529 11.8684C7.00134 11.2824 7.7962 10.9531 8.625 10.9531H21.7094M26.75 5.95312H35.5V14.7031M18 23.4531L34.875 6.57812" stroke="#F8F0F8" stroke-width="2.5" stroke-linecap="round" stroke-linejoin="round"/>
</svg>
