<svg width="30" height="31" viewBox="0 0 30 31" fill="none" xmlns="http://www.w3.org/2000/svg">
<path d="M22.5 13.239V24.0203C22.5 24.328 22.4394 24.6328 22.3216 24.9172C22.2038 25.2015 22.0312 25.4599 21.8135 25.6775C21.5959 25.8952 21.3375 26.0678 21.0532 26.1856C20.7688 26.3034 20.464 26.364 20.1562 26.364H6.09375C5.47215 26.364 4.87601 26.1171 4.43647 25.6775C3.99693 25.238 3.75 24.6419 3.75 24.0203V9.95776C3.75 9.33616 3.99693 8.74002 4.43647 8.30048C4.87601 7.86094 5.47215 7.61401 6.09375 7.61401H15.907M19.6875 3.86401H26.25V10.4265M13.125 16.989L25.7812 4.33276" stroke="#FCFAFC" stroke-width="2.5" stroke-linecap="round" stroke-linejoin="round"/>
</svg>
