<svg width="55" height="55" viewBox="0 0 55 55" fill="none" xmlns="http://www.w3.org/2000/svg">
<path d="M51.4708 13.7501C49.7063 14.5522 47.8042 15.0792 45.8333 15.3313C47.85 14.1167 49.4083 12.1917 50.1417 9.87716C48.2396 11.023 46.1313 11.8251 43.9083 12.2834C42.0979 10.3126 39.5542 9.16675 36.6667 9.16675C31.2813 9.16675 26.8813 13.5667 26.8813 18.998C26.8813 19.7772 26.9729 20.5334 27.1333 21.2438C18.975 20.8313 11.7104 16.9126 6.87501 10.9772C6.02709 12.4209 5.54584 14.1167 5.54584 15.9042C5.54584 19.3188 7.26459 22.3438 9.92292 24.0626C8.29584 24.0626 6.78334 23.6042 5.45418 22.9167V22.9855C5.45418 27.7522 8.84584 31.7397 13.3375 32.6334C11.8954 33.0281 10.3815 33.083 8.91459 32.7938C9.53702 34.7474 10.756 36.4568 12.4003 37.6818C14.0445 38.9067 16.0312 39.5856 18.0813 39.623C14.6062 42.374 10.2987 43.861 5.86667 43.8397C5.08751 43.8397 4.30834 43.7938 3.52917 43.7022C7.88334 46.498 13.0625 48.1251 18.6083 48.1251C36.6667 48.1251 46.5896 33.1376 46.5896 20.1438C46.5896 19.7084 46.5896 19.2959 46.5667 18.8605C48.4917 17.4855 50.1417 15.7438 51.4708 13.7501Z" fill="#FCDBFF"/>
</svg>
