<svg width="45" height="45" viewBox="0 0 45 45" fill="none" xmlns="http://www.w3.org/2000/svg">
<path d="M42.1124 11.25C40.6687 11.9062 39.1124 12.3375 37.4999 12.5437C39.1499 11.55 40.4249 9.975 41.0249 8.08125C39.4687 9.01875 37.7437 9.675 35.9249 10.05C34.4437 8.4375 32.3624 7.5 29.9999 7.5C25.5937 7.5 21.9937 11.1 21.9937 15.5437C21.9937 16.1812 22.0687 16.8 22.2 17.3813C15.525 17.0438 9.5812 13.8375 5.62495 8.98125C4.9312 10.1625 4.53745 11.55 4.53745 13.0125C4.53745 15.8062 5.9437 18.2812 8.1187 19.6875C6.78745 19.6875 5.54995 19.3125 4.46245 18.75V18.8062C4.46245 22.7062 7.23745 25.9687 10.9125 26.7C9.73256 27.0229 8.49388 27.0678 7.2937 26.8312C7.80296 28.4296 8.80033 29.8283 10.1456 30.8305C11.4909 31.8327 13.1164 32.3882 14.7937 32.4188C11.9505 34.6696 8.42619 35.8862 4.79995 35.8687C4.16245 35.8687 3.52495 35.8312 2.88745 35.7562C6.44995 38.0437 10.6875 39.375 15.225 39.375C29.9999 39.375 38.1187 27.1125 38.1187 16.4812C38.1187 16.125 38.1187 15.7875 38.0999 15.4312C39.6749 14.3062 41.0249 12.8812 42.1124 11.25Z" fill="#070109"/>
</svg>
