<svg width="55" height="55" viewBox="0 0 55 55" fill="none" xmlns="http://www.w3.org/2000/svg">
<path d="M51.4708 13.7498C49.7063 14.5519 47.8042 15.079 45.8333 15.3311C47.85 14.1165 49.4083 12.1915 50.1417 9.87692C48.2396 11.0228 46.1313 11.8248 43.9083 12.2832C42.0979 10.3123 39.5542 9.1665 36.6667 9.1665C31.2813 9.1665 26.8813 13.5665 26.8813 18.9978C26.8813 19.7769 26.9729 20.5332 27.1333 21.2436C18.975 20.8311 11.7104 16.9123 6.87501 10.9769C6.02709 12.4207 5.54584 14.1165 5.54584 15.904C5.54584 19.3186 7.26459 22.3436 9.92292 24.0623C8.29584 24.0623 6.78334 23.604 5.45418 22.9165V22.9853C5.45418 27.7519 8.84584 31.7394 13.3375 32.6332C11.8954 33.0278 10.3815 33.0827 8.91459 32.7936C9.53702 34.7472 10.756 36.4566 12.4003 37.6816C14.0445 38.9065 16.0312 39.5854 18.0813 39.6228C14.6062 42.3738 10.2987 43.8608 5.86667 43.8394C5.08751 43.8394 4.30834 43.7936 3.52917 43.7019C7.88334 46.4978 13.0625 48.1248 18.6083 48.1248C36.6667 48.1248 46.5896 33.1373 46.5896 20.1436C46.5896 19.7082 46.5896 19.2957 46.5667 18.8603C48.4917 17.4853 50.1417 15.7436 51.4708 13.7498Z" fill="#FCFAFC"/>
</svg>
