<svg xmlns="http://www.w3.org/2000/svg" viewBox="0 0 500 500"><g id="freepik--Floor--inject-56"><ellipse id="freepik--floor--inject-56" cx="249" cy="337.9" rx="243.71" ry="150.89" style="fill:#f5f5f5"></ellipse></g><g id="freepik--Plants--inject-56"><g id="freepik--plants--inject-56"><path d="M439.41,344.83c-2.23,3.93-7.17,9.36-10.63,15-5,8.17-8.32,19.63-7.09,39.11l-2.61-1.51-6.42-3.71c-1.81-10.26-1.71-22.44,1-38.09,2.52-14.44,11.46-28.29,20-29.15C441.6,325.7,445,335,439.41,344.83Z" style="fill:#e0e0e0"></path><path d="M416.2,393.34a.5.5,0,0,0,.31-.53c-3.34-26.75,7.67-51.4,18.87-60.33a.51.51,0,0,0-.64-.8c-11.38,9.07-22.63,34.14-19.24,61.25a.52.52,0,0,0,.57.45Z" style="fill:#fff"></path><path d="M450.17,362.72c-1.53,5-11.25,10.32-17.48,18.71-5.61,7.58-8.06,15.27-7.85,19.35h0L421.69,399l-2.61-1.51c-1.43-19,5.55-30,11.6-37.45,1.78-2.19,6.68-5.23,8.65-5.86C448.1,351.36,452,356.66,450.17,362.72Z" style="fill:#ebebeb"></path><path d="M422,397a.51.51,0,0,0,.33-.45c1.19-21.7,14.11-33,20.78-36a.52.52,0,0,0,.26-.68.51.51,0,0,0-.68-.26c-7.37,3.27-20.16,14.72-21.38,36.86a.5.5,0,0,0,.48.54A.36.36,0,0,0,422,397Z" style="fill:#fff"></path></g><g id="freepik--plants--inject-56"><path d="M66.34,353.19l-8.73,5c-.49-25.6-17.11-44.35-25.12-54.27-8.14-10.09,3.12-16.14,12.61-11.7S62.29,308,65.47,322.8C68.19,335.42,66.8,349.4,66.34,353.19Z" style="fill:#e0e0e0"></path><path d="M62.63,352.41h.12a.54.54,0,0,0,.54-.57c-.89-32.23-11.62-48.36-24-56.57a.56.56,0,0,0-.78.16.55.55,0,0,0,.16.77c12.24,8.1,22.65,23.9,23.53,55.67A.56.56,0,0,0,62.63,352.41Z" style="fill:#fff"></path><path d="M19.47,324c.19,1.78,1.63,3.15,3,4.3s2.87,2.4,3.25,4.15c.75,3.54-3.44,6.8-2.53,10.3A5.55,5.55,0,0,0,26.14,346a36.59,36.59,0,0,0,3.47,1.49,15.71,15.71,0,0,0,1.74.42,8.1,8.1,0,0,1,4.76,2.13c1.93,2.09,1.69,5.32,2.37,8.09.83,3.32,2.8,5.26,7.32,6.84l15.45-8.76c3.86-3.93,5.21-10.65,1.67-15.21-2.13-2.74-6.12-3.09-8.13-5.83-1.8-2.45-.76-6-1.87-8.84s-4-3.82-6.82-4.3-5.72.66-8.43-.33-5.22-2.59-8-3.29a9.37,9.37,0,0,0-8.09,1.36A5,5,0,0,0,19.47,324Z" style="fill:#ebebeb"></path><path d="M48.29,337.94a.31.31,0,0,0-.12-.16c-7.26-10.3-18.65-15.2-22.5-16.06a.41.41,0,0,0-.48.31.39.39,0,0,0,.3.48c3.65.82,14.23,5.34,21.34,14.79a22.2,22.2,0,0,0-17.72,1.54.4.4,0,0,0,.2.74.39.39,0,0,0,.23-.07,21.47,21.47,0,0,1,18.11-1.09,33.75,33.75,0,0,1,6.05,20.79.4.4,0,0,0,.36.41h0a.4.4,0,0,0,.41-.39A34.45,34.45,0,0,0,48.29,337.94Z" style="fill:#fff"></path></g></g><g id="freepik--Shadows--inject-56"><polygon id="freepik--Shadow--inject-56" points="336.24 392.22 83.34 246.37 123.96 222.92 376.86 368.77 336.24 392.22" style="fill:#e0e0e0"></polygon><polygon id="freepik--shadow--inject-56" points="373.79 433.03 388.85 424.34 354.37 400.94 386.82 394.22 385.75 390.58 406.93 382.63 431.83 399.52 444 392.5 471.81 451.86 373.79 433.03" style="fill:#e0e0e0"></polygon><path id="freepik--shadow--inject-56" d="M139.42,352c20.5,11.84,20.5,31,0,42.87s-53.75,11.84-74.25,0-20.5-31,0-42.87S118.91,340.21,139.42,352Z" style="fill:#e0e0e0"></path><path id="freepik--shadow--inject-56" d="M194.94,396.84c20.51,11.83,20.51,31,0,42.86s-53.74,11.84-74.24,0-20.5-31,0-42.86S174.44,385,194.94,396.84Z" style="fill:#e0e0e0"></path><path id="freepik--shadow--inject-56" d="M96.3,425.42l-12.16,7.29a7.55,7.55,0,0,1-6.83.22L22.23,403.38c-1.92-1-2-2.8-.12-3.95l12.16-7.29a7.57,7.57,0,0,1,6.84-.21l55.07,29.55C98.1,422.51,98.16,424.28,96.3,425.42Z" style="fill:#e0e0e0"></path><path id="freepik--shadow--inject-56" d="M284.52,359.25c18.78,10.85,18.78,28.43,0,39.27s-49.23,10.84-68,0-18.78-28.42,0-39.27S265.74,348.41,284.52,359.25Z" style="fill:#e0e0e0"></path></g><g id="freepik--arrows-2--inject-56"><g id="freepik--down-arrows--inject-56"><polygon points="210.76 94.07 162.66 66.3 186.71 110.48 210.76 94.07" style="fill:#BA68C8;opacity:0.5"></polygon><polygon points="210.76 73.87 162.66 46.1 186.71 90.28 210.76 73.87" style="fill:#BA68C8;opacity:0.30000000000000004"></polygon><polygon points="210.76 53.68 162.66 25.91 186.71 70.09 210.76 53.68" style="fill:#BA68C8;opacity:0.1"></polygon></g></g><g id="freepik--arrow-1--inject-56"><g id="freepik--Arrow--inject-56"><polygon points="173.82 175.56 133.2 199.01 177.01 158.14 217.63 134.69 173.82 175.56" style="fill:#BA68C8"></polygon><polygon points="217.63 134.69 173.82 175.56 133.2 199.01 177.01 158.14 217.63 134.69" style="opacity:0.30000000000000004"></polygon><polygon points="169.03 165.59 133.2 199.01 62.86 52.75 103.48 29.3 169.03 165.59" style="fill:#BA68C8"></polygon><polygon points="287.98 280.94 247.36 304.4 291.17 263.53 331.79 240.07 287.98 280.94" style="fill:#BA68C8"></polygon><polygon points="331.79 240.07 287.98 280.94 247.36 304.4 291.17 263.53 331.79 240.07" style="opacity:0.30000000000000004"></polygon><polygon points="391.35 365.55 373.94 371.22 373.36 377.47 346.31 379.71 346.13 379.3 291.17 263.53 331.79 240.07 391.3 365.43 391.35 365.55" style="fill:#BA68C8"></polygon><polygon points="283.18 270.98 247.36 304.4 177.01 158.14 217.63 134.69 283.18 270.98" style="fill:#BA68C8"></polygon><polygon points="470.51 444.29 444.37 388.51 432.44 395.4 405.29 376.98 386.5 384.04 387.79 388.41 356.51 394.89 391.82 418.85 378.39 426.6 470.51 444.29" style="fill:#BA68C8"></polygon></g></g><g id="freepik--Chart--inject-56"><g id="freepik--chart--inject-56"><path d="M284.18,26c0-1.85.67-3.13,1.73-3.71h0l4.46-2.54h0c1-.63,2.48-.57,4.08.36L466,119.14a12.57,12.57,0,0,1,5.69,9.85V295.06c0,1.83-.65,3.1-1.69,3.69h0l-4.56,2.6h0c-1,.6-2.46.51-4-.39l-171.5-99.09a12.6,12.6,0,0,1-5.69-9.85Z" style="fill:#BA68C8;opacity:0.4"></path><path d="M284.18,26V192a12.57,12.57,0,0,0,5.68,9.85L461.37,301c2.78,1.61,5.11.62,5.58-2.16a5.84,5.84,0,0,1-1-.46l-171.5-99.09a12.55,12.55,0,0,1-5.69-9.85V23.34a5.69,5.69,0,0,1,.1-1.14C286.2,21.21,284.18,22.73,284.18,26Z" style="fill:#BA68C8;opacity:0.4"></path><path d="M289.87,22.67,304.59,32,323.78,43.4l62,35.9,31,18,31,17.85,7.76,4.46,3.88,2.23c.62.37,1.37.76,1.87,1.1a10,10,0,0,1,1.53,1.31,11.66,11.66,0,0,1,3.25,7.34l0,9,0,35.8.2,45.77c.12,47.74.44,27.88.74,75.62.29-47.74.62-27.88.73-75.62l.21-45.77,0-35.8v-9a13.64,13.64,0,0,0-3.78-8.71,11.52,11.52,0,0,0-1.87-1.6c-.73-.48-1.31-.78-2-1.18l-3.87-2.24-7.75-4.49-31-18-31-17.86L324.71,41.8,305.18,31Z" style="fill:#fff"></path><g style="opacity:0.30000000000000004"><polygon points="455.85 126.91 295.31 34.23 295.31 35.36 455.64 127.93 455.64 289.16 295.31 196.6 295.31 197.74 456.49 290.79 456.49 127.28 455.85 126.91" style="fill:#fff"></polygon><polygon points="295.31 179.69 456.27 272.63 455.85 271.25 295.31 178.56 295.31 179.69" style="fill:#fff"></polygon><polygon points="295.31 161.65 456.27 254.59 455.85 253.2 295.31 160.52 295.31 161.65" style="fill:#fff"></polygon><polygon points="295.31 143.61 456.27 236.54 455.85 235.16 295.31 142.48 295.31 143.61" style="fill:#fff"></polygon><polygon points="295.31 125.57 456.27 218.5 455.85 217.12 295.31 124.43 295.31 125.57" style="fill:#fff"></polygon><polygon points="295.31 107.53 456.27 200.46 455.85 199.08 295.31 106.39 295.31 107.53" style="fill:#fff"></polygon><polygon points="295.31 89.49 456.27 182.42 455.85 181.04 295.31 88.35 295.31 89.49" style="fill:#fff"></polygon><polygon points="295.31 71.44 456.27 164.38 455.85 163 295.31 70.31 295.31 71.44" style="fill:#fff"></polygon><polygon points="295.31 53.4 456.27 146.34 455.85 144.95 295.31 52.27 295.31 53.4" style="fill:#fff"></polygon><polygon points="295.31 34.59 295.31 196.96 296.05 197.88 296.05 35.5 295.31 34.59" style="fill:#fff"></polygon><polygon points="307.54 203.94 308.39 205 308.39 42.63 307.54 41.57 307.54 203.94" style="fill:#fff"></polygon><polygon points="319.88 211.07 320.73 212.13 320.73 49.76 319.88 48.7 319.88 211.07" style="fill:#fff"></polygon><polygon points="332.22 218.19 333.07 219.26 333.07 56.88 332.22 55.82 332.22 218.19" style="fill:#fff"></polygon><polygon points="344.56 225.32 345.41 226.38 345.41 64 344.56 62.95 344.56 225.32" style="fill:#fff"></polygon><polygon points="356.9 232.45 357.76 233.51 357.76 71.13 356.9 70.07 356.9 232.45" style="fill:#fff"></polygon><polygon points="369.25 239.57 370.1 240.63 370.1 78.26 369.25 77.2 369.25 239.57" style="fill:#fff"></polygon><polygon points="381.59 246.7 382.44 247.76 382.44 85.38 381.59 84.32 381.59 246.7" style="fill:#fff"></polygon><polygon points="393.93 253.82 394.78 254.88 394.78 92.51 393.93 91.45 393.93 253.82" style="fill:#fff"></polygon><polygon points="406.27 260.95 407.12 262.01 407.12 99.63 406.27 98.57 406.27 260.95" style="fill:#fff"></polygon><polygon points="418.61 268.07 419.46 269.13 419.46 106.76 418.61 105.7 418.61 268.07" style="fill:#fff"></polygon><polygon points="430.95 275.2 431.81 276.26 431.81 113.88 430.95 112.82 430.95 275.2" style="fill:#fff"></polygon><polygon points="443.3 282.32 444.15 283.38 444.15 121.01 443.3 119.95 443.3 282.32" style="fill:#fff"></polygon></g><path d="M443.8,254.92l0,0a4.17,4.17,0,0,1-1.89-3.27,1.78,1.78,0,0,1,.2-.85l-11.71-25.61c-.3.55-.95.68-1.69.24a4.17,4.17,0,0,1-1.89-3.26,1.45,1.45,0,0,1,.39-1.09l-12.09-17.45a1.19,1.19,0,0,1-1.5,0,4.19,4.19,0,0,1-1.89-3.27,1.93,1.93,0,0,1,.06-.49L400.32,171c-.2.84-.93,1.11-1.83.6a4.17,4.17,0,0,1-1.88-3.26,1.68,1.68,0,0,1,.2-.86L385.09,154c-.29.54-.93.66-1.68.23a3.67,3.67,0,0,1-1.33-1.4L369.66,160a4,4,0,0,1,.55,1.86c0,1.2-.85,1.69-1.89,1.09a4.17,4.17,0,0,1-1.88-3.27,2.54,2.54,0,0,1,.05-.49l-11.43-9.91c-.2.84-.95,1.11-1.83.6a4.16,4.16,0,0,1-1.88-3.26,1.21,1.21,0,0,1,.71-1.28h0l-12.74-25.74a1.4,1.4,0,0,1-1.18-.2,4.14,4.14,0,0,1-1.88-3.26h0L325,109.56c0,1.2-.85,1.69-1.9,1.09a4.16,4.16,0,0,1-1.88-3.27,1.23,1.23,0,0,1,.7-1.29L309.19,80.45a1.4,1.4,0,0,1-1.23-.19V184.5L443.8,262.93Z" style="fill:#BA68C8;opacity:0.7000000000000001"></path><path d="M443.53,255.3a4.59,4.59,0,0,1-2.12-3.66,1.6,1.6,0,0,1,2.59-1.49,4.62,4.62,0,0,1,2.12,3.66,1.76,1.76,0,0,1-.79,1.63,1.49,1.49,0,0,1-.72.19A2.14,2.14,0,0,1,443.53,255.3Zm-.87-4.48a.91.91,0,0,0-.32.82A3.72,3.72,0,0,0,444,254.5a.91.91,0,0,0,.87.13.92.92,0,0,0,.32-.82,3.72,3.72,0,0,0-1.66-2.86,1.25,1.25,0,0,0-.61-.2A.46.46,0,0,0,442.66,250.82Z" style="fill:#fafafa"></path><path d="M442,251.26a.51.51,0,0,0,.31-.11.48.48,0,0,0,.05-.66l-11.72-25.61a.46.46,0,0,0-.66,0,.48.48,0,0,0-.05.66l11.72,25.61A.47.47,0,0,0,442,251.26Z" style="fill:#fafafa"></path><path d="M427.11,221.52a.5.5,0,0,0,.26-.08.48.48,0,0,0,.12-.65l-12.08-17.43a.45.45,0,0,0-.64-.11.46.46,0,0,0-.12.64l12.07,17.43A.47.47,0,0,0,427.11,221.52Z" style="fill:#fafafa"></path><path d="M411.7,200.33a.44.44,0,0,0,.35-.16.46.46,0,0,0-.05-.65l-11.43-28.83a.48.48,0,0,0-.66.05.46.46,0,0,0,0,.66l11.43,28.82A.45.45,0,0,0,411.7,200.33Z" style="fill:#fafafa"></path><path d="M396.75,168a.51.51,0,0,0,.31-.11.47.47,0,0,0,0-.66l-11.72-13.54a.47.47,0,0,0-.66,0,.46.46,0,0,0,0,.65l11.72,13.54A.44.44,0,0,0,396.75,168Z" style="fill:#fafafa"></path><path d="M369.6,160.44a.53.53,0,0,0,.23-.06l12.42-7.17a.46.46,0,1,0-.47-.8l-12.42,7.17a.47.47,0,0,0-.17.63A.48.48,0,0,0,369.6,160.44Z" style="fill:#fafafa"></path><path d="M366.43,159.63a.44.44,0,0,0,.35-.16.45.45,0,0,0,0-.65l-11.42-9.9a.46.46,0,1,0-.61.7l11.43,9.9A.46.46,0,0,0,366.43,159.63Z" style="fill:#fafafa"></path><path d="M352,145.77a.41.41,0,0,0,.21-.05.46.46,0,0,0,.21-.62L339.7,119.42a.46.46,0,1,0-.83.41l12.71,25.68A.45.45,0,0,0,352,145.77Z" style="fill:#fafafa"></path><path d="M336.2,116.57a.47.47,0,0,0,.23-.87l-11.32-6.53a.46.46,0,0,0-.63.17.45.45,0,0,0,.17.63L336,116.51A.53.53,0,0,0,336.2,116.57Z" style="fill:#fafafa"></path><path d="M321.82,106.57a.47.47,0,0,0,.41-.67L309.54,80.25a.46.46,0,0,0-.62-.21.46.46,0,0,0-.21.62l12.69,25.65A.46.46,0,0,0,321.82,106.57Z" style="fill:#fafafa"></path><path d="M428.44,225.82a4.64,4.64,0,0,1-2.11-3.67,1.6,1.6,0,0,1,2.58-1.49h0a4.59,4.59,0,0,1,2.12,3.66,1.76,1.76,0,0,1-.79,1.63,1.49,1.49,0,0,1-.72.19A2.22,2.22,0,0,1,428.44,225.82Zm0-4.36a.71.71,0,0,0-1.19.69,3.72,3.72,0,0,0,1.66,2.86.71.71,0,0,0,1.19-.69,3.72,3.72,0,0,0-1.66-2.86Z" style="fill:#fafafa"></path><path d="M413.35,204a4.61,4.61,0,0,1-2.11-3.67,1.75,1.75,0,0,1,.78-1.62,1.79,1.79,0,0,1,1.8.13h0a4.63,4.63,0,0,1,2.12,3.67,1.74,1.74,0,0,1-.79,1.62,1.39,1.39,0,0,1-.72.19A2.12,2.12,0,0,1,413.35,204Zm0-4.35a.7.7,0,0,0-1.18.68,3.71,3.71,0,0,0,1.65,2.87.91.91,0,0,0,.87.13.93.93,0,0,0,.32-.82,3.7,3.7,0,0,0-1.66-2.86Z" style="fill:#fafafa"></path><path d="M398.27,172a4.6,4.6,0,0,1-2.12-3.67,1.6,1.6,0,0,1,2.58-1.49h0a4.63,4.63,0,0,1,2.12,3.67,1.74,1.74,0,0,1-.79,1.62,1.39,1.39,0,0,1-.72.19A2.09,2.09,0,0,1,398.27,172Zm0-4.35a.91.91,0,0,0-.87-.13c-.21.11-.32.41-.32.81a3.71,3.71,0,0,0,1.65,2.87.91.91,0,0,0,.87.13.93.93,0,0,0,.32-.82,3.72,3.72,0,0,0-1.65-2.86Z" style="fill:#fafafa"></path><path d="M368.09,163.32a4.61,4.61,0,0,1-2.12-3.67,1.6,1.6,0,0,1,2.58-1.49,4.63,4.63,0,0,1,2.12,3.67,1.77,1.77,0,0,1-.78,1.62,1.42,1.42,0,0,1-.73.19A2.19,2.19,0,0,1,368.09,163.32Zm-.87-4.49a.91.91,0,0,0-.32.82,3.74,3.74,0,0,0,1.65,2.87.91.91,0,0,0,.87.13.93.93,0,0,0,.32-.82,3.7,3.7,0,0,0-1.65-2.86,1.31,1.31,0,0,0-.61-.2A.53.53,0,0,0,367.22,158.83Z" style="fill:#fafafa"></path><path d="M353,150.25a4.6,4.6,0,0,1-2.12-3.67,1.6,1.6,0,0,1,2.58-1.49h0a4.63,4.63,0,0,1,2.12,3.67,1.79,1.79,0,0,1-.78,1.63,1.51,1.51,0,0,1-.72.18A2.12,2.12,0,0,1,353,150.25Zm0-4.35a.91.91,0,0,0-.87-.13.9.9,0,0,0-.32.81,3.74,3.74,0,0,0,1.65,2.87.91.91,0,0,0,.87.13.89.89,0,0,0,.32-.82A3.71,3.71,0,0,0,353,145.9Z" style="fill:#fafafa"></path><path d="M322.82,111.05a4.64,4.64,0,0,1-2.12-3.67,1.61,1.61,0,0,1,2.59-1.49h0a4.63,4.63,0,0,1,2.12,3.67,1.76,1.76,0,0,1-.79,1.62,1.39,1.39,0,0,1-.72.19A2.12,2.12,0,0,1,322.82,111.05Zm0-4.35a.89.89,0,0,0-.87-.14.93.93,0,0,0-.32.82,3.72,3.72,0,0,0,1.66,2.87.91.91,0,0,0,.87.13.93.93,0,0,0,.32-.82,3.7,3.7,0,0,0-1.66-2.86Z" style="fill:#fafafa"></path><path d="M337.91,119.76a4.6,4.6,0,0,1-2.12-3.67,1.6,1.6,0,0,1,2.58-1.49h0a4.63,4.63,0,0,1,2.12,3.67,1.76,1.76,0,0,1-.78,1.62,1.41,1.41,0,0,1-.72.19A2.12,2.12,0,0,1,337.91,119.76Zm0-4.35a.91.91,0,0,0-.87-.13.9.9,0,0,0-.32.81,3.74,3.74,0,0,0,1.65,2.87.91.91,0,0,0,.87.13.89.89,0,0,0,.32-.82,3.69,3.69,0,0,0-1.65-2.86Z" style="fill:#fafafa"></path><path d="M307.73,80.67A4.63,4.63,0,0,1,305.61,77a1.61,1.61,0,0,1,2.59-1.49,4.61,4.61,0,0,1,2.11,3.67,1.75,1.75,0,0,1-.78,1.62,1.39,1.39,0,0,1-.72.19A2.22,2.22,0,0,1,307.73,80.67Zm-.87-4.49a.93.93,0,0,0-.32.82,3.7,3.7,0,0,0,1.66,2.86.91.91,0,0,0,.87.14.93.93,0,0,0,.32-.82,3.72,3.72,0,0,0-1.66-2.87,1.22,1.22,0,0,0-.61-.19A.55.55,0,0,0,306.86,76.18Z" style="fill:#fafafa"></path><path d="M383.18,154.61a4.63,4.63,0,0,1-2.12-3.67,1.6,1.6,0,0,1,2.58-1.49h0a4.61,4.61,0,0,1,2.12,3.67,1.76,1.76,0,0,1-.79,1.62,1.36,1.36,0,0,1-.72.19A2.19,2.19,0,0,1,383.18,154.61Zm-.87-4.49a.91.91,0,0,0-.32.82,3.71,3.71,0,0,0,1.65,2.87.71.71,0,0,0,1.19-.69,3.74,3.74,0,0,0-1.65-2.87h0a1.28,1.28,0,0,0-.61-.19A.53.53,0,0,0,382.31,150.12Zm1.09-.27h0Z" style="fill:#fafafa"></path></g></g><g id="freepik--Coin--inject-56"><g id="freepik--coin--inject-56"><path d="M212.78,368.46a27.42,27.42,0,0,1,10.15-9.39c16.59-9.58,43.49-9.58,60.08,0a27.42,27.42,0,0,1,10.15,9.39h2.29v8.68h0c-.3,6-4.43,12-12.41,16.62-16.59,9.58-43.49,9.58-60.08,0-8-4.6-12.14-10.59-12.45-16.62h0v-8.68Z" style="fill:#BA68C8"></path><path d="M212.78,368.46a27.42,27.42,0,0,1,10.15-9.39c16.59-9.58,43.49-9.58,60.08,0a27.42,27.42,0,0,1,10.15,9.39h2.29v8.68h0c-.3,6-4.43,12-12.41,16.62-16.59,9.58-43.49,9.58-60.08,0-8-4.6-12.14-10.59-12.45-16.62h0v-8.68Z" style="opacity:0.25"></path><path d="M253,351.89c10.87,0,21.74,2.39,30,7.18a27.42,27.42,0,0,1,10.15,9.39h2.29v8.68h0c-.3,6-4.43,12-12.41,16.62-8.3,4.79-19.17,7.19-30,7.19Z" style="opacity:0.1"></path><path d="M276.17,355.87a46.67,46.67,0,0,1,6.84,3.2,27.42,27.42,0,0,1,10.15,9.39h2.29v8.68h0c-.3,6-4.43,12-12.41,16.62a45.66,45.66,0,0,1-6.84,3.2Z" style="opacity:0.1"></path><path d="M229.76,355.87a47,47,0,0,0-6.83,3.2,27.42,27.42,0,0,0-10.15,9.39h-2.3v8.68h0c.31,6,4.47,12,12.45,16.62a46,46,0,0,0,6.83,3.2Z" style="fill:#BA68C8;opacity:0.5"></path><path d="M283,351.12c16.59,9.58,16.59,25.11,0,34.69-14.52,8.38-36.93,9.43-53.42,3.14h0l-.66-.26a46.79,46.79,0,0,1-6-2.88c-13.84-8-16.14-20.12-6.9-29.48h0a32.33,32.33,0,0,1,6.89-5.2C239.52,341.54,266.42,341.54,283,351.12Z" style="fill:#BA68C8"></path><path d="M283,351.12c16.59,9.58,16.59,25.11,0,34.69-14.52,8.38-36.93,9.43-53.42,3.14h0l-.66-.26a46.79,46.79,0,0,1-6-2.88c-13.84-8-16.14-20.12-6.9-29.48h0a32.33,32.33,0,0,1,6.89-5.2C239.52,341.54,266.42,341.54,283,351.12Z" style="opacity:0.2"></path><path d="M216,356.33c-.17.2-6,6.32-4.44,15.13,1.47,8.43,13.27,15.53,17.34,17.23a46.79,46.79,0,0,1-6-2.88C209.09,377.82,206.79,365.69,216,356.33Z" style="fill:#f5f5f5;opacity:0.5"></path><path d="M289.9,380.6a18.58,18.58,0,0,0,4.44-15.14c-1.46-8.43-13.27-15.52-17.34-17.23a45.67,45.67,0,0,1,6,2.89C296.84,359.11,299.14,371.23,289.9,380.6Z" style="fill:#f5f5f5;opacity:0.5"></path><ellipse cx="252.98" cy="368.43" rx="39.49" ry="22.8" style="fill:#BA68C8"></ellipse><ellipse cx="252.98" cy="368.43" rx="39.49" ry="22.8" style="fill:#fff;opacity:0.4"></ellipse><path d="M215.28,375.24c-3.17-5.87-2.13-12.34,3.1-17.82a25.56,25.56,0,0,1,3.35-2.93,34.1,34.1,0,0,1,3.2-2.11c.63-.37,1.27-.72,1.94-1.06-1.64,2.71-1,5.6,8.27,6.14,18.2,1.07-4.87,18.46-4.87,18.46S218.54,370.26,215.28,375.24Z" style="fill:#fff;opacity:0.2"></path><path d="M217.16,370.43c-2.73-.31-4.08-3.12-3-6.28s4.13-5.47,6.87-5.17,4.08,3.12,3,6.28S219.89,370.73,217.16,370.43Z" style="fill:#fff;opacity:0.5"></path><path d="M246,384.92c.9-6.76,30.45-25.47,30.45-25.47s6.55-2.63,4.37-7.21a31.87,31.87,0,0,1,3.16,2c.69.5,1.33,1,1.92,1.52,8.8,7.62,8.81,17.63,0,25.25-.59.52-1.24,1-1.92,1.52a29.64,29.64,0,0,1-2.93,1.91c-1,.59-2,1.13-3.13,1.64-.86.41-1.75.79-2.66,1.15s-1.82.69-2.77,1a58.07,58.07,0,0,1-8.81,2.11c-.66.11-1.33.21-2,.29a67.41,67.41,0,0,1-19.59-.33S246.8,389.37,246,384.92Z" style="fill:#BA68C8"></path><path d="M246,384.92c.9-6.76,30.45-25.47,30.45-25.47s6.55-2.63,4.37-7.21a31.87,31.87,0,0,1,3.16,2c.69.5,1.33,1,1.92,1.52,8.8,7.62,8.81,17.63,0,25.25-.59.52-1.24,1-1.92,1.52a29.64,29.64,0,0,1-2.93,1.91c-1,.59-2,1.13-3.13,1.64-.86.41-1.75.79-2.66,1.15s-1.82.69-2.77,1a58.07,58.07,0,0,1-8.81,2.11c-.66.11-1.33.21-2,.29a67.41,67.41,0,0,1-19.59-.33S246.8,389.37,246,384.92Z" style="fill:#fff;opacity:0.30000000000000004"></path><path d="M273.8,356.42c11,6.36,11.47,16.51,1.35,23.19-.43.28-.88.56-1.35.83-11.49,6.63-30.12,6.63-41.61,0s-11.49-17.39,0-24q.7-.41,1.44-.78C245.19,349.79,262.78,350.05,273.8,356.42Z" style="fill:#BA68C8"></path><path d="M273.8,356.42c11,6.36,11.47,16.51,1.35,23.19-.43.28-.88.56-1.35.83-11.49,6.63-30.12,6.63-41.61,0s-11.49-17.39,0-24q.7-.41,1.44-.78C245.19,349.79,262.78,350.05,273.8,356.42Z" style="opacity:0.2"></path><path d="M272.87,357c11,6.34,11,16.62,0,23s-28.79,6.34-39.77,0-11-16.62,0-23S261.89,350.6,272.87,357Z" style="fill:#BA68C8"></path><path d="M272.87,357c11,6.34,11,16.62,0,23s-28.79,6.34-39.77,0-11-16.62,0-23S261.89,350.6,272.87,357Z" style="opacity:0.5"></path><path d="M272.87,361.47c-11-6.34-28.79-6.34-39.77,0-4.5,2.59-7.15,5.84-8,9.21.82,3.37,3.47,6.63,8,9.22,11,6.34,28.79,6.34,39.77,0,4.49-2.59,7.14-5.85,8-9.22C280,367.32,277.36,364.07,272.87,361.47Z" style="fill:#BA68C8"></path><path d="M272.87,361.47c-11-6.34-28.79-6.34-39.77,0-4.5,2.59-7.15,5.84-8,9.21.82,3.37,3.47,6.63,8,9.22,11,6.34,28.79,6.34,39.77,0,4.49-2.59,7.14-5.85,8-9.22C280,367.32,277.36,364.07,272.87,361.47Z" style="opacity:0.35000000000000003"></path><path d="M270.69,373.32c0-.55,0-2.78,0-3.36,0-1.37-1-2.71-3-3.91l-.07,0c-3.77-2.18-7.68-1.9-11.15-1h0c-1.48.37-2.88.85-4.16,1.29a41.63,41.63,0,0,1-4.47,1.39h0a8.06,8.06,0,0,1-2.12.2,4.52,4.52,0,0,1-1.76-.47l.14-.09a4.68,4.68,0,0,1,.44-.27,8.66,8.66,0,0,1,1.18-.59,8.13,8.13,0,0,1,6.25-.14l3.61-3.64v-3.34a17.24,17.24,0,0,0-9.86-.36,20.18,20.18,0,0,0-3.14,1.09l-3.6-2.08-4.31,2.48v3.34l1.48.85a3.54,3.54,0,0,0-.63,2v3.33c0,1.38,1,2.71,3.06,3.91a12.68,12.68,0,0,0,6,1.71h0a11.81,11.81,0,0,0,1.19,0,23.52,23.52,0,0,0,6.38-1.38c.42-.14.84-.28,1.24-.43l-3.63,3.64v3.34a17.72,17.72,0,0,0,13.91-.6l3.56,2.05,4.3-2.48v-3.34l-1.47-.85A3.85,3.85,0,0,0,270.69,373.32Zm-9.07-.29a9.31,9.31,0,0,1-8,.61c3.37-1.19,6.19-2.23,8.58-1A4.58,4.58,0,0,1,261.62,373Z" style="fill:#BA68C8"></path><path d="M256.47,365h0c-1.48.37-2.88.85-4.16,1.29a41.63,41.63,0,0,1-4.47,1.39h0a8.06,8.06,0,0,1-2.12.2,4.44,4.44,0,0,1-2.05-.61c-1.38-.8-1.58-2,.43-3.29l.44-.27a8.66,8.66,0,0,1,1.18-.59,8.18,8.18,0,0,1,6.25-.14l3.61-3.64a17.24,17.24,0,0,0-9.86-.36,20.18,20.18,0,0,0-3.14,1.09l-3.6-2.08-4.31,2.48,3.57,2.06,0,0c-3.62,2.75-3.7,5.6.37,7.95a12.56,12.56,0,0,0,6,1.71h0c.39,0,.79,0,1.19,0a23.52,23.52,0,0,0,6.38-1.38c4.13-1.38,7.48-3,10.26-1.4,1.86,1.08,1.34,2.43-.7,3.61a9.28,9.28,0,0,1-8.17.55l-3.78,3.79a17.68,17.68,0,0,0,13.91-.6l3.56,2.06,4.3-2.49-3.56-2c3.58-2.77,4-5.79-.19-8.24l-.07,0C263.85,363.83,259.94,364.11,256.47,365Z" style="fill:#BA68C8"></path><g style="opacity:0.30000000000000004"><path d="M256.47,365h0c-1.48.37-2.88.85-4.16,1.29a41.63,41.63,0,0,1-4.47,1.39h0a8.06,8.06,0,0,1-2.12.2,4.44,4.44,0,0,1-2.05-.61c-1.38-.8-1.58-2,.43-3.29l.44-.27a8.66,8.66,0,0,1,1.18-.59,8.18,8.18,0,0,1,6.25-.14l3.61-3.64a17.24,17.24,0,0,0-9.86-.36,20.18,20.18,0,0,0-3.14,1.09l-3.6-2.08-4.31,2.48,3.57,2.06,0,0c-3.62,2.75-3.7,5.6.37,7.95a12.56,12.56,0,0,0,6,1.71h0c.39,0,.79,0,1.19,0a23.52,23.52,0,0,0,6.38-1.38c4.13-1.38,7.48-3,10.26-1.4,1.86,1.08,1.34,2.43-.7,3.61a9.28,9.28,0,0,1-8.17.55l-3.78,3.79a17.68,17.68,0,0,0,13.91-.6l3.56,2.06,4.3-2.49-3.56-2c3.58-2.77,4-5.79-.19-8.24l-.07,0C263.85,363.83,259.94,364.11,256.47,365Z" style="fill:#fff"></path></g><polygon points="234.64 360.46 238.98 358.49 242.54 360.06 238.94 357.98 234.64 360.46" style="fill:#f5f5f5;opacity:0.45"></polygon><path d="M245.18,359.11a20.26,20.26,0,0,1,9.25.31l-2.5,3.55,3.61-3.64A17.2,17.2,0,0,0,245.18,359.11Z" style="fill:#f5f5f5;opacity:0.45"></path><path d="M267.62,366l.07,0c4.18,2.45,3.77,5.47.19,8.24,3.17-3.46,2.6-5.87-.84-7.86s-7.85-2-10.57-1.44C259.94,364.11,263.85,363.83,267.62,366Z" style="fill:#f5f5f5;opacity:0.45"></path><polygon points="267.88 374.29 270.61 376.38 267.14 378.83 271.44 376.34 267.88 374.29" style="fill:#f5f5f5;opacity:0.45"></polygon><path d="M260.62,373.53a9.28,9.28,0,0,1-6.86.6l-4.09,3.24,3.78-3.79A9.25,9.25,0,0,0,260.62,373.53Z" style="fill:#f5f5f5;opacity:0.45"></path><path d="M247.8,367.67c-1.62.64-4,.53-5.15-.49s-.45-2.22,1.41-3.21c-2,1.32-1.81,2.49-.43,3.29a4.44,4.44,0,0,0,2.05.61A8.06,8.06,0,0,0,247.8,367.67Z" style="fill:#f5f5f5;opacity:0.45"></path><path d="M238.17,362.55c-.31.27-2.9,2.68-1.76,5.1,1.22,2.57,5,4.22,8.08,4.56h0a12.56,12.56,0,0,1-6-1.71C234.47,368.15,234.55,365.3,238.17,362.55Z" style="fill:#f5f5f5;opacity:0.45"></path></g></g><g id="freepik--Character--inject-56"><g id="freepik--Coins--inject-56"><path d="M66.12,361.48a27.42,27.42,0,0,1,10.15-9.39c16.59-9.58,43.49-9.58,60.08,0a27.42,27.42,0,0,1,10.15,9.39h2.3v8.68h0c-.31,6-4.44,12-12.42,16.62-16.59,9.58-43.49,9.58-60.08,0-8-4.6-12.14-10.59-12.44-16.62h0v-8.68Z" style="fill:#BA68C8"></path><path d="M66.12,361.48a27.42,27.42,0,0,1,10.15-9.39c16.59-9.58,43.49-9.58,60.08,0a27.42,27.42,0,0,1,10.15,9.39h2.3v8.68h0c-.31,6-4.44,12-12.42,16.62-16.59,9.58-43.49,9.58-60.08,0-8-4.6-12.14-10.59-12.44-16.62h0v-8.68Z" style="opacity:0.25"></path><path d="M106.31,344.91c10.87,0,21.75,2.39,30,7.18a27.42,27.42,0,0,1,10.15,9.39h2.3v8.68h0c-.31,6-4.44,12-12.42,16.62-8.29,4.79-19.17,7.19-30,7.19Z" style="opacity:0.1"></path><path d="M129.51,348.89a46.67,46.67,0,0,1,6.84,3.2,27.42,27.42,0,0,1,10.15,9.39h2.3v8.68h0c-.31,6-4.44,12-12.42,16.62a45.66,45.66,0,0,1-6.84,3.2Z" style="opacity:0.1"></path><path d="M83.11,348.89a46.67,46.67,0,0,0-6.84,3.2,27.42,27.42,0,0,0-10.15,9.39H63.83v8.68h0c.3,6,4.46,12,12.44,16.62a45.66,45.66,0,0,0,6.84,3.2Z" style="fill:#BA68C8;opacity:0.5"></path><path d="M136.35,344.14c16.6,9.58,16.59,25.11,0,34.69-14.51,8.38-36.92,9.43-53.41,3.14h0l-.65-.26a46.3,46.3,0,0,1-6-2.88c-13.84-8-16.13-20.12-6.89-29.48h0a32.59,32.59,0,0,1,6.89-5.2C92.86,334.56,119.76,334.56,136.35,344.14Z" style="fill:#BA68C8"></path><path d="M136.35,344.14c16.6,9.58,16.59,25.11,0,34.69-14.51,8.38-36.92,9.43-53.41,3.14h0l-.65-.26a46.3,46.3,0,0,1-6-2.88c-13.84-8-16.13-20.12-6.89-29.48h0a32.59,32.59,0,0,1,6.89-5.2C92.86,334.56,119.76,334.56,136.35,344.14Z" style="opacity:0.2"></path><path d="M69.38,349.35a18.58,18.58,0,0,0-4.45,15.13c1.47,8.43,13.28,15.53,17.35,17.23a46.3,46.3,0,0,1-6-2.88C62.43,370.84,60.14,358.71,69.38,349.35Z" style="fill:#f5f5f5;opacity:0.5"></path><path d="M143.24,373.62c.18-.21,6-6.33,4.45-15.14-1.47-8.43-13.28-15.52-17.34-17.23a45.54,45.54,0,0,1,6,2.89C150.19,352.13,152.49,364.25,143.24,373.62Z" style="fill:#f5f5f5;opacity:0.5"></path><path d="M78.4,377.57c-15.42-8.9-15.42-23.34,0-32.24s40.43-8.91,55.85,0,15.43,23.34,0,32.24S93.82,386.48,78.4,377.57Z" style="fill:#BA68C8"></path><path d="M78.4,377.57c-15.42-8.9-15.42-23.34,0-32.24s40.43-8.91,55.85,0,15.43,23.34,0,32.24S93.82,386.48,78.4,377.57Z" style="fill:#fff;opacity:0.4"></path><path d="M68.63,368.26c-3.18-5.87-2.14-12.34,3.1-17.82a26.11,26.11,0,0,1,3.34-2.93,32.23,32.23,0,0,1,3.2-2.11c.63-.37,1.28-.72,2-1.06-1.64,2.71-1,5.6,8.26,6.14,18.2,1.07-4.87,18.46-4.87,18.46S71.88,363.28,68.63,368.26Z" style="fill:#fff;opacity:0.2"></path><path d="M70.51,363.45c-2.74-.31-4.09-3.12-3-6.28s4.14-5.47,6.87-5.16,4.09,3.11,3,6.27S73.24,363.75,70.51,363.45Z" style="fill:#fff;opacity:0.5"></path><path d="M99.3,377.94c.89-6.76,30.44-25.47,30.44-25.47s6.55-2.63,4.38-7.21a36.62,36.62,0,0,1,3.16,2c.68.5,1.32,1,1.92,1.52,8.79,7.62,8.81,17.63,0,25.25-.59.52-1.23,1-1.91,1.52a32.19,32.19,0,0,1-2.93,1.91c-1,.59-2,1.13-3.13,1.64-.86.41-1.76.79-2.66,1.15s-1.83.69-2.77,1A57.91,57.91,0,0,1,117,383.4c-.66.11-1.32.21-2,.29a67.47,67.47,0,0,1-19.6-.33S100.14,382.39,99.3,377.94Z" style="fill:#BA68C8"></path><path d="M99.3,377.94c.89-6.76,30.44-25.47,30.44-25.47s6.55-2.63,4.38-7.21a36.62,36.62,0,0,1,3.16,2c.68.5,1.32,1,1.92,1.52,8.79,7.62,8.81,17.63,0,25.25-.59.52-1.23,1-1.91,1.52a32.19,32.19,0,0,1-2.93,1.91c-1,.59-2,1.13-3.13,1.64-.86.41-1.76.79-2.66,1.15s-1.83.69-2.77,1A57.91,57.91,0,0,1,117,383.4c-.66.11-1.32.21-2,.29a67.47,67.47,0,0,1-19.6-.33S100.14,382.39,99.3,377.94Z" style="fill:#fff;opacity:0.30000000000000004"></path><path d="M127.15,349.44c11,6.36,11.47,16.51,1.34,23.19-.43.28-.88.56-1.35.83-11.49,6.63-30.11,6.63-41.6,0s-11.5-17.39,0-24c.47-.27,1-.53,1.45-.78C98.54,342.81,116.12,343.07,127.15,349.44Z" style="fill:#BA68C8"></path><path d="M127.15,349.44c11,6.36,11.47,16.51,1.34,23.19-.43.28-.88.56-1.35.83-11.49,6.63-30.11,6.63-41.6,0s-11.5-17.39,0-24c.47-.27,1-.53,1.45-.78C98.54,342.81,116.12,343.07,127.15,349.44Z" style="opacity:0.2"></path><path d="M126.21,350c11,6.34,11,16.62,0,23s-28.79,6.34-39.77,0-11-16.62,0-23S115.23,343.62,126.21,350Z" style="fill:#BA68C8"></path><path d="M126.21,350c11,6.34,11,16.62,0,23s-28.79,6.34-39.77,0-11-16.62,0-23S115.23,343.62,126.21,350Z" style="opacity:0.5"></path><path d="M126.21,354.49c-11-6.34-28.79-6.34-39.77,0-4.49,2.6-7.14,5.85-8,9.22.82,3.37,3.47,6.63,8,9.22,11,6.34,28.79,6.34,39.77,0,4.49-2.59,7.15-5.85,8-9.22C133.36,360.34,130.7,357.09,126.21,354.49Z" style="fill:#BA68C8"></path><path d="M126.21,354.49c-11-6.34-28.79-6.34-39.77,0-4.49,2.6-7.14,5.85-8,9.22.82,3.37,3.47,6.63,8,9.22,11,6.34,28.79,6.34,39.77,0,4.49-2.59,7.15-5.85,8-9.22C133.36,360.34,130.7,357.09,126.21,354.49Z" style="opacity:0.35000000000000003"></path><path d="M124,366.34c0-.55,0-2.78,0-3.36,0-1.37-1-2.71-3-3.91l-.07,0c-3.78-2.18-7.68-1.9-11.16-1h0c-1.48.37-2.88.85-4.16,1.29a40.28,40.28,0,0,1-4.47,1.39h0a8.17,8.17,0,0,1-2.13.2,4.69,4.69,0,0,1-1.76-.46l.14-.1.44-.28a11.66,11.66,0,0,1,1.18-.58,8.13,8.13,0,0,1,6.25-.14l3.61-3.64v-3.34A17.23,17.23,0,0,0,99,352a20.07,20.07,0,0,0-3.13,1.09L92.28,351,88,353.48v3.34l1.47.85a3.62,3.62,0,0,0-.63,1.95c0,.55,0,2.77,0,3.33,0,1.38,1,2.71,3.07,3.91a12.64,12.64,0,0,0,5.94,1.71h0a11.81,11.81,0,0,0,1.19,0,23.52,23.52,0,0,0,6.38-1.38l1.25-.43L103,370.39v3.34a17.7,17.7,0,0,0,13.9-.6l3.56,2.05,4.31-2.48v-3.34l-1.48-.85A3.94,3.94,0,0,0,124,366.34Zm-9.08-.29a8.48,8.48,0,0,1-1,.5,9.2,9.2,0,0,1-7,.1c3.37-1.18,6.18-2.22,8.58-.95A5.77,5.77,0,0,1,115,366.05Z" style="fill:#BA68C8"></path><path d="M109.81,358h0c-1.48.37-2.88.85-4.16,1.29a40.28,40.28,0,0,1-4.47,1.39h0a8.17,8.17,0,0,1-2.13.2,4.36,4.36,0,0,1-2-.61c-1.39-.8-1.59-2,.42-3.29l.44-.27a10,10,0,0,1,1.18-.59,8.18,8.18,0,0,1,6.25-.14l3.61-3.64A17.23,17.23,0,0,0,99,352a20.07,20.07,0,0,0-3.13,1.09L92.28,351,88,353.48l3.56,2.06,0,0c-3.62,2.75-3.69,5.6.38,7.95a12.53,12.53,0,0,0,5.94,1.71h0c.4,0,.8,0,1.19,0a23.52,23.52,0,0,0,6.38-1.38c4.13-1.38,7.48-3,10.26-1.4,1.86,1.08,1.35,2.43-.7,3.61a8.48,8.48,0,0,1-1,.5,9.23,9.23,0,0,1-7.16.05L103,370.39a17.65,17.65,0,0,0,13.9-.6l3.56,2.06,4.31-2.49-3.56-2.05c3.58-2.77,4-5.79-.19-8.24l-.07,0C117.19,356.85,113.29,357.13,109.81,358Z" style="fill:#BA68C8"></path><g style="opacity:0.30000000000000004"><path d="M109.81,358h0c-1.48.37-2.88.85-4.16,1.29a40.28,40.28,0,0,1-4.47,1.39h0a8.17,8.17,0,0,1-2.13.2,4.36,4.36,0,0,1-2-.61c-1.39-.8-1.59-2,.42-3.29l.44-.27a10,10,0,0,1,1.18-.59,8.18,8.18,0,0,1,6.25-.14l3.61-3.64A17.23,17.23,0,0,0,99,352a20.07,20.07,0,0,0-3.13,1.09L92.28,351,88,353.48l3.56,2.06,0,0c-3.62,2.75-3.69,5.6.38,7.95a12.53,12.53,0,0,0,5.94,1.71h0c.4,0,.8,0,1.19,0a23.52,23.52,0,0,0,6.38-1.38c4.13-1.38,7.48-3,10.26-1.4,1.86,1.08,1.35,2.43-.7,3.61a8.48,8.48,0,0,1-1,.5,9.23,9.23,0,0,1-7.16.05L103,370.39a17.65,17.65,0,0,0,13.9-.6l3.56,2.06,4.31-2.49-3.56-2.05c3.58-2.77,4-5.79-.19-8.24l-.07,0C117.19,356.85,113.29,357.13,109.81,358Z" style="fill:#fff"></path></g><polygon points="87.98 353.48 92.32 351.51 95.89 353.08 92.28 351 87.98 353.48" style="fill:#f5f5f5;opacity:0.45"></polygon><path d="M98.52,352.13a20.26,20.26,0,0,1,9.25.31L105.28,356l3.6-3.64A17.2,17.2,0,0,0,98.52,352.13Z" style="fill:#f5f5f5;opacity:0.45"></path><path d="M121,359l.07,0c4.18,2.45,3.77,5.47.19,8.24,3.17-3.46,2.6-5.87-.85-7.86s-7.84-2-10.57-1.44C113.29,357.13,117.19,356.85,121,359Z" style="fill:#f5f5f5;opacity:0.45"></path><polygon points="121.23 367.31 123.96 369.4 120.48 371.85 124.79 369.36 121.23 367.31" style="fill:#f5f5f5;opacity:0.45"></polygon><path d="M114,366.55a9.28,9.28,0,0,1-6.86.6L103,370.39l3.78-3.79A9.23,9.23,0,0,0,114,366.55Z" style="fill:#f5f5f5;opacity:0.45"></path><path d="M101.15,360.69c-1.63.64-4,.53-5.16-.49S95.55,358,97.4,357c-2,1.32-1.81,2.49-.42,3.29a4.36,4.36,0,0,0,2,.61A8.17,8.17,0,0,0,101.15,360.69Z" style="fill:#f5f5f5;opacity:0.45"></path><path d="M91.51,355.57c-.31.27-2.9,2.68-1.75,5.1s5,4.22,8.07,4.56h0a12.53,12.53,0,0,1-5.94-1.71C87.82,361.17,87.89,358.32,91.51,355.57Z" style="fill:#f5f5f5;opacity:0.45"></path><path d="M59.76,349.73a27.32,27.32,0,0,1,10.15-9.38c16.59-9.58,43.49-9.58,60.08,0a27.32,27.32,0,0,1,10.15,9.38h2.29v8.68h0c-.3,6-4.43,12-12.41,16.63-16.59,9.57-43.49,9.57-60.08,0-8-4.61-12.14-10.59-12.45-16.63h0v-8.68Z" style="fill:#BA68C8"></path><path d="M59.76,349.73a27.32,27.32,0,0,1,10.15-9.38c16.59-9.58,43.49-9.58,60.08,0a27.32,27.32,0,0,1,10.15,9.38h2.29v8.68h0c-.3,6-4.43,12-12.41,16.63-16.59,9.57-43.49,9.57-60.08,0-8-4.61-12.14-10.59-12.45-16.63h0v-8.68Z" style="opacity:0.25"></path><path d="M100,333.16c10.87,0,21.74,2.4,30,7.19a27.32,27.32,0,0,1,10.15,9.38h2.29v8.68h0c-.3,6-4.43,12-12.41,16.63-8.3,4.79-19.17,7.18-30,7.18Z" style="opacity:0.1"></path><path d="M123.15,337.14a46.7,46.7,0,0,1,6.84,3.21,27.32,27.32,0,0,1,10.15,9.38h2.29v8.68h0c-.3,6-4.43,12-12.41,16.63a46.67,46.67,0,0,1-6.84,3.2Z" style="opacity:0.1"></path><path d="M76.74,337.14a47.07,47.07,0,0,0-6.83,3.21,27.32,27.32,0,0,0-10.15,9.38h-2.3v8.68h0c.31,6,4.47,12,12.45,16.63a47,47,0,0,0,6.83,3.2Z" style="fill:#BA68C8;opacity:0.5"></path><path d="M130,332.39c16.59,9.58,16.59,25.11,0,34.69-14.52,8.38-36.93,9.43-53.42,3.14h0l-.66-.25a45.54,45.54,0,0,1-6-2.89c-13.84-8-16.14-20.11-6.9-29.48h0a32,32,0,0,1,6.89-5.21C86.5,322.81,113.4,322.81,130,332.39Z" style="fill:#BA68C8"></path><path d="M130,332.39c16.59,9.58,16.59,25.11,0,34.69-14.52,8.38-36.93,9.43-53.42,3.14h0l-.66-.25a45.54,45.54,0,0,1-6-2.89c-13.84-8-16.14-20.11-6.9-29.48h0a32,32,0,0,1,6.89-5.21C86.5,322.81,113.4,322.81,130,332.39Z" style="opacity:0.2"></path><path d="M63,337.6c-.17.2-6,6.33-4.44,15.14C60,361.17,71.84,368.26,75.91,370a45.54,45.54,0,0,1-6-2.89C56.07,359.09,53.77,347,63,337.6Z" style="fill:#f5f5f5;opacity:0.5"></path><path d="M136.88,361.87a18.58,18.58,0,0,0,4.45-15.13c-1.47-8.43-13.28-15.53-17.35-17.23a45.63,45.63,0,0,1,6,2.88C143.82,340.38,146.12,352.51,136.88,361.87Z" style="fill:#f5f5f5;opacity:0.5"></path><ellipse cx="99.96" cy="349.7" rx="39.49" ry="22.8" style="fill:#BA68C8"></ellipse><ellipse cx="99.96" cy="349.7" rx="39.49" ry="22.8" style="fill:#fff;opacity:0.4"></ellipse><path d="M62.26,356.51c-3.17-5.87-2.13-12.33,3.1-17.82a27.13,27.13,0,0,1,3.35-2.93,36.2,36.2,0,0,1,3.2-2.11c.63-.37,1.27-.72,1.94-1-1.64,2.7-1,5.59,8.27,6.14,18.2,1.06-4.87,18.45-4.87,18.45S65.52,351.53,62.26,356.51Z" style="fill:#fff;opacity:0.2"></path><path d="M64.14,351.7c-2.73-.31-4.08-3.12-3-6.27S65.26,340,68,340.26s4.08,3.11,3,6.27S66.87,352,64.14,351.7Z" style="fill:#fff;opacity:0.5"></path><path d="M92.93,366.2c.9-6.76,30.45-25.48,30.45-25.48s6.55-2.62,4.38-7.2a34.39,34.39,0,0,1,3.16,2c.68.49,1.32,1,1.91,1.52,8.8,7.62,8.81,17.62,0,25.25-.59.52-1.24,1-1.92,1.52a32.71,32.71,0,0,1-2.92,1.9c-1,.59-2,1.14-3.14,1.64-.86.41-1.75.8-2.66,1.15s-1.82.69-2.77,1a57.8,57.8,0,0,1-8.81,2.12l-2,.29a67.89,67.89,0,0,1-8.81.55A66.54,66.54,0,0,1,89,371.61S93.78,370.64,92.93,366.2Z" style="fill:#BA68C8"></path><path d="M92.93,366.2c.9-6.76,30.45-25.48,30.45-25.48s6.55-2.62,4.38-7.2a34.39,34.39,0,0,1,3.16,2c.68.49,1.32,1,1.91,1.52,8.8,7.62,8.81,17.62,0,25.25-.59.52-1.24,1-1.92,1.52a32.71,32.71,0,0,1-2.92,1.9c-1,.59-2,1.14-3.14,1.64-.86.41-1.75.8-2.66,1.15s-1.82.69-2.77,1a57.8,57.8,0,0,1-8.81,2.12l-2,.29a67.89,67.89,0,0,1-8.81.55A66.54,66.54,0,0,1,89,371.61S93.78,370.64,92.93,366.2Z" style="fill:#fff;opacity:0.30000000000000004"></path><path d="M120.78,337.69c11,6.36,11.47,16.52,1.35,23.19-.43.28-.88.56-1.35.83-11.49,6.64-30.12,6.64-41.61,0s-11.49-17.39,0-24q.7-.4,1.44-.78C92.17,331.07,109.76,331.33,120.78,337.69Z" style="fill:#BA68C8"></path><path d="M120.78,337.69c11,6.36,11.47,16.52,1.35,23.19-.43.28-.88.56-1.35.83-11.49,6.64-30.12,6.64-41.61,0s-11.49-17.39,0-24q.7-.4,1.44-.78C92.17,331.07,109.76,331.33,120.78,337.69Z" style="opacity:0.2"></path><path d="M119.85,338.22c11,6.34,11,16.62,0,23s-28.79,6.34-39.77,0-11-16.62,0-23S108.87,331.88,119.85,338.22Z" style="fill:#BA68C8"></path><path d="M119.85,338.22c11,6.34,11,16.62,0,23s-28.79,6.34-39.77,0-11-16.62,0-23S108.87,331.88,119.85,338.22Z" style="opacity:0.5"></path><path d="M119.85,342.75c-11-6.34-28.79-6.34-39.77,0-4.5,2.59-7.15,5.84-8,9.22.82,3.37,3.47,6.62,8,9.21,11,6.34,28.79,6.34,39.77,0,4.49-2.59,7.14-5.84,8-9.21C127,348.59,124.34,345.34,119.85,342.75Z" style="fill:#BA68C8"></path><path d="M119.85,342.75c-11-6.34-28.79-6.34-39.77,0-4.5,2.59-7.15,5.84-8,9.22.82,3.37,3.47,6.62,8,9.21,11,6.34,28.79,6.34,39.77,0,4.49-2.59,7.14-5.84,8-9.21C127,348.59,124.34,345.34,119.85,342.75Z" style="opacity:0.35000000000000003"></path><path d="M117.67,354.59c0-.55,0-2.78,0-3.35,0-1.38-1-2.72-3-3.92l-.07,0c-3.77-2.18-7.68-1.9-11.15-1h0c-1.48.38-2.88.86-4.16,1.3a43.66,43.66,0,0,1-4.47,1.38h0a7.3,7.3,0,0,1-2.12.2,4.51,4.51,0,0,1-1.76-.46l.14-.1.44-.27a10,10,0,0,1,1.18-.59,8.18,8.18,0,0,1,6.25-.14l3.61-3.64v-3.33a17.15,17.15,0,0,0-9.86-.36,20.12,20.12,0,0,0-3.14,1.08l-3.6-2.08-4.31,2.49v3.33l1.48.85a3.54,3.54,0,0,0-.63,1.95v3.33c0,1.38,1,2.71,3.06,3.91a12.56,12.56,0,0,0,6,1.71h0c.39,0,.79,0,1.19,0A23.15,23.15,0,0,0,99,355.43l1.24-.42-3.63,3.64V362a17.68,17.68,0,0,0,13.91-.6l3.56,2.06,4.3-2.49v-3.33l-1.47-.86A3.82,3.82,0,0,0,117.67,354.59Zm-9.07-.28a9.46,9.46,0,0,1-8,.6c3.37-1.19,6.19-2.23,8.58-1Z" style="fill:#BA68C8"></path><path d="M103.45,346.26h0c-1.48.38-2.88.86-4.16,1.3a43.66,43.66,0,0,1-4.47,1.38h0a7.3,7.3,0,0,1-2.12.2,4.44,4.44,0,0,1-2-.61c-1.38-.8-1.58-2,.43-3.29l.44-.27a8.58,8.58,0,0,1,1.18-.58,8.13,8.13,0,0,1,6.25-.15l3.61-3.63a17.15,17.15,0,0,0-9.86-.36,20.12,20.12,0,0,0-3.14,1.08l-3.6-2.08-4.31,2.49,3.57,2.05,0,0c-3.62,2.75-3.7,5.6.37,7.95a12.56,12.56,0,0,0,6,1.71h0c.39,0,.79,0,1.19,0A23.52,23.52,0,0,0,99,352.1c4.13-1.38,7.48-3,10.26-1.41,1.86,1.08,1.34,2.43-.7,3.62a9.47,9.47,0,0,1-8.17.55l-3.78,3.79a17.72,17.72,0,0,0,13.91-.61l3.56,2.06,4.3-2.48-3.56-2.06c3.58-2.77,4-5.79-.19-8.24l-.07,0C110.83,345.1,106.92,345.38,103.45,346.26Z" style="fill:#BA68C8"></path><g style="opacity:0.30000000000000004"><path d="M103.45,346.26h0c-1.48.38-2.88.86-4.16,1.3a43.66,43.66,0,0,1-4.47,1.38h0a7.3,7.3,0,0,1-2.12.2,4.44,4.44,0,0,1-2-.61c-1.38-.8-1.58-2,.43-3.29l.44-.27a8.58,8.58,0,0,1,1.18-.58,8.13,8.13,0,0,1,6.25-.15l3.61-3.63a17.15,17.15,0,0,0-9.86-.36,20.12,20.12,0,0,0-3.14,1.08l-3.6-2.08-4.31,2.49,3.57,2.05,0,0c-3.62,2.75-3.7,5.6.37,7.95a12.56,12.56,0,0,0,6,1.71h0c.39,0,.79,0,1.19,0A23.52,23.52,0,0,0,99,352.1c4.13-1.38,7.48-3,10.26-1.41,1.86,1.08,1.34,2.43-.7,3.62a9.47,9.47,0,0,1-8.17.55l-3.78,3.79a17.72,17.72,0,0,0,13.91-.61l3.56,2.06,4.3-2.48-3.56-2.06c3.58-2.77,4-5.79-.19-8.24l-.07,0C110.83,345.1,106.92,345.38,103.45,346.26Z" style="fill:#fff"></path></g><polygon points="81.62 341.74 85.96 339.77 89.52 341.33 85.92 339.25 81.62 341.74" style="fill:#f5f5f5;opacity:0.45"></polygon><path d="M92.16,340.39a20,20,0,0,1,9.25.31l-2.5,3.54,3.61-3.63A17.12,17.12,0,0,0,92.16,340.39Z" style="fill:#f5f5f5;opacity:0.45"></path><path d="M114.6,347.28l.07,0c4.18,2.45,3.77,5.47.19,8.24,3.17-3.46,2.6-5.87-.84-7.86s-7.85-2-10.57-1.44C106.92,345.38,110.83,345.1,114.6,347.28Z" style="fill:#f5f5f5;opacity:0.45"></path><polygon points="114.86 355.56 117.59 357.66 114.12 360.1 118.42 357.62 114.86 355.56" style="fill:#f5f5f5;opacity:0.45"></polygon><path d="M107.6,354.8a9.22,9.22,0,0,1-6.86.6l-4.09,3.25,3.78-3.79A9.21,9.21,0,0,0,107.6,354.8Z" style="fill:#f5f5f5;opacity:0.45"></path><path d="M94.78,348.94c-1.62.64-4,.53-5.15-.49s-.45-2.21,1.41-3.21c-2,1.32-1.81,2.49-.43,3.29a4.44,4.44,0,0,0,2,.61A7.3,7.3,0,0,0,94.78,348.94Z" style="fill:#f5f5f5;opacity:0.45"></path><path d="M85.15,343.82c-.31.27-2.9,2.69-1.76,5.1,1.22,2.57,5,4.23,8.08,4.56h0a12.56,12.56,0,0,1-6-1.71C81.45,349.42,81.53,346.57,85.15,343.82Z" style="fill:#f5f5f5;opacity:0.45"></path><path d="M63,334.22a27.42,27.42,0,0,1,10.15-9.39c16.59-9.58,43.49-9.58,60.08,0a27.42,27.42,0,0,1,10.15,9.39h2.3v8.68h0c-.31,6-4.44,12-12.42,16.62-16.59,9.58-43.49,9.58-60.08,0-8-4.6-12.14-10.59-12.44-16.62h0v-8.68Z" style="fill:#BA68C8"></path><path d="M63,334.22a27.42,27.42,0,0,1,10.15-9.39c16.59-9.58,43.49-9.58,60.08,0a27.42,27.42,0,0,1,10.15,9.39h2.3v8.68h0c-.31,6-4.44,12-12.42,16.62-16.59,9.58-43.49,9.58-60.08,0-8-4.6-12.14-10.59-12.44-16.62h0v-8.68Z" style="opacity:0.25"></path><path d="M103.16,317.65c10.87,0,21.75,2.39,30,7.18a27.42,27.42,0,0,1,10.15,9.39h2.3v8.68h0c-.31,6-4.44,12-12.42,16.62-8.29,4.79-19.17,7.19-30,7.19Z" style="opacity:0.1"></path><path d="M126.37,321.63a47,47,0,0,1,6.83,3.2,27.42,27.42,0,0,1,10.15,9.39h2.3v8.68h0c-.31,6-4.44,12-12.42,16.62a46,46,0,0,1-6.83,3.2Z" style="opacity:0.1"></path><path d="M80,321.63a46.67,46.67,0,0,0-6.84,3.2A27.42,27.42,0,0,0,63,334.22H60.68v8.68h0c.3,6,4.46,12,12.44,16.62a45.66,45.66,0,0,0,6.84,3.2Z" style="fill:#BA68C8;opacity:0.5"></path><path d="M133.2,316.88c16.6,9.58,16.59,25.11,0,34.69C118.69,360,96.28,361,79.79,354.71h0l-.65-.26a46.93,46.93,0,0,1-6-2.88c-13.83-8-16.13-20.12-6.89-29.48h0a32.59,32.59,0,0,1,6.89-5.2C89.71,307.3,116.61,307.3,133.2,316.88Z" style="fill:#BA68C8"></path><path d="M133.2,316.88c16.6,9.58,16.59,25.11,0,34.69C118.69,360,96.28,361,79.79,354.71h0l-.65-.26a46.93,46.93,0,0,1-6-2.88c-13.83-8-16.13-20.12-6.89-29.48h0a32.59,32.59,0,0,1,6.89-5.2C89.71,307.3,116.61,307.3,133.2,316.88Z" style="opacity:0.2"></path><path d="M66.23,322.09a18.58,18.58,0,0,0-4.45,15.13c1.47,8.43,13.28,15.53,17.35,17.23a46.93,46.93,0,0,1-6-2.88C59.29,343.58,57,331.45,66.23,322.09Z" style="fill:#f5f5f5;opacity:0.5"></path><path d="M140.1,346.35c.17-.2,6-6.32,4.44-15.13-1.47-8.43-13.27-15.52-17.34-17.23a45.54,45.54,0,0,1,6,2.89C147,324.87,149.34,337,140.1,346.35Z" style="fill:#f5f5f5;opacity:0.5"></path><path d="M75.25,350.31c-15.42-8.9-15.42-23.34,0-32.25s40.43-8.9,55.86,0,15.42,23.35,0,32.25S90.68,359.22,75.25,350.31Z" style="fill:#BA68C8"></path><path d="M75.25,350.31c-15.42-8.9-15.42-23.34,0-32.25s40.43-8.9,55.86,0,15.42,23.35,0,32.25S90.68,359.22,75.25,350.31Z" style="fill:#fff;opacity:0.4"></path><path d="M65.48,341c-3.18-5.87-2.14-12.34,3.1-17.82a26.11,26.11,0,0,1,3.34-2.93,32.23,32.23,0,0,1,3.2-2.11c.63-.37,1.28-.72,1.95-1.06-1.64,2.7-1,5.6,8.26,6.14,18.2,1.06-4.86,18.46-4.86,18.46S68.73,336,65.48,341Z" style="fill:#fff;opacity:0.2"></path><path d="M67.36,336.19c-2.74-.31-4.09-3.12-3-6.28s4.14-5.47,6.87-5.17,4.09,3.12,3,6.28S70.09,336.49,67.36,336.19Z" style="fill:#fff;opacity:0.5"></path><path d="M96.15,350.68c.89-6.76,30.44-25.47,30.44-25.47s6.55-2.63,4.38-7.21a33.08,33.08,0,0,1,3.16,2c.68.5,1.32,1,1.92,1.52,8.8,7.62,8.81,17.63,0,25.25-.6.52-1.24,1-1.92,1.52a34.47,34.47,0,0,1-2.93,1.91c-1,.59-2,1.13-3.13,1.64-.86.41-1.76.79-2.66,1.15s-1.83.69-2.77,1a57.91,57.91,0,0,1-8.82,2.11c-.66.11-1.32.21-2,.29A68.15,68.15,0,0,1,103,357a66.54,66.54,0,0,1-10.78-.88S97,355.13,96.15,350.68Z" style="fill:#BA68C8"></path><path d="M96.15,350.68c.89-6.76,30.44-25.47,30.44-25.47s6.55-2.63,4.38-7.21a33.08,33.08,0,0,1,3.16,2c.68.5,1.32,1,1.92,1.52,8.8,7.62,8.81,17.63,0,25.25-.6.52-1.24,1-1.92,1.52a34.47,34.47,0,0,1-2.93,1.91c-1,.59-2,1.13-3.13,1.64-.86.41-1.76.79-2.66,1.15s-1.83.69-2.77,1a57.91,57.91,0,0,1-8.82,2.11c-.66.11-1.32.21-2,.29A68.15,68.15,0,0,1,103,357a66.54,66.54,0,0,1-10.78-.88S97,355.13,96.15,350.68Z" style="fill:#fff;opacity:0.30000000000000004"></path><path d="M124,322.18c11,6.36,11.47,16.51,1.34,23.18q-.65.43-1.35.84c-11.49,6.63-30.11,6.63-41.6,0s-11.5-17.39,0-24c.47-.28,1-.54,1.45-.78C95.39,315.55,113,315.81,124,322.18Z" style="fill:#BA68C8"></path><path d="M124,322.18c11,6.36,11.47,16.51,1.34,23.18q-.65.43-1.35.84c-11.49,6.63-30.11,6.63-41.6,0s-11.5-17.39,0-24c.47-.28,1-.54,1.45-.78C95.39,315.55,113,315.81,124,322.18Z" style="opacity:0.2"></path><path d="M123.06,322.7c11,6.35,11,16.63,0,23s-28.79,6.34-39.77,0-11-16.62,0-23S112.08,316.36,123.06,322.7Z" style="fill:#BA68C8"></path><path d="M123.06,322.7c11,6.35,11,16.63,0,23s-28.79,6.34-39.77,0-11-16.62,0-23S112.08,316.36,123.06,322.7Z" style="opacity:0.5"></path><path d="M123.06,327.23c-11-6.34-28.79-6.34-39.77,0-4.49,2.6-7.14,5.85-8,9.22.82,3.37,3.47,6.62,8,9.22,11,6.34,28.79,6.34,39.77,0,4.49-2.6,7.15-5.85,8-9.22C130.21,333.08,127.55,329.83,123.06,327.23Z" style="fill:#BA68C8"></path><path d="M123.06,327.23c-11-6.34-28.79-6.34-39.77,0-4.49,2.6-7.14,5.85-8,9.22.82,3.37,3.47,6.62,8,9.22,11,6.34,28.79,6.34,39.77,0,4.49-2.6,7.15-5.85,8-9.22C130.21,333.08,127.55,329.83,123.06,327.23Z" style="opacity:0.35000000000000003"></path><path d="M120.89,339.08c0-.55,0-2.78,0-3.36,0-1.38-1-2.71-3-3.91l-.07-.05c-3.78-2.18-7.68-1.89-11.16-1h0c-1.47.37-2.88.85-4.16,1.29A38,38,0,0,1,98,333.42h0a8.17,8.17,0,0,1-2.13.2,4.52,4.52,0,0,1-1.76-.47l.14-.09c.14-.1.29-.19.44-.28a11.66,11.66,0,0,1,1.18-.58,8.16,8.16,0,0,1,6.26-.14l3.6-3.64v-3.34a17.15,17.15,0,0,0-9.86-.36,20.07,20.07,0,0,0-3.13,1.09l-3.61-2.08-4.3,2.48v3.34l1.47.85a3.6,3.6,0,0,0-.63,1.95c0,.55,0,2.77,0,3.33,0,1.38,1,2.71,3.07,3.9a12.66,12.66,0,0,0,5.94,1.72h0a11.81,11.81,0,0,0,1.19,0,23.68,23.68,0,0,0,6.39-1.38l1.24-.43-3.63,3.64v3.34a17.7,17.7,0,0,0,13.9-.6l3.56,2.05,4.31-2.48V342.1l-1.48-.85A4,4,0,0,0,120.89,339.08Zm-9.08-.29a8.48,8.48,0,0,1-1,.5,9.2,9.2,0,0,1-7,.1c3.37-1.18,6.18-2.22,8.58-.95A5.77,5.77,0,0,1,111.81,338.79Z" style="fill:#BA68C8"></path><path d="M106.66,330.74h0c-1.47.37-2.88.85-4.16,1.29A38,38,0,0,1,98,333.42h0a8.17,8.17,0,0,1-2.13.2,4.52,4.52,0,0,1-2-.61c-1.39-.8-1.59-2,.42-3.29l.44-.27a10,10,0,0,1,1.18-.59,8.16,8.16,0,0,1,6.26-.14l3.6-3.64a17.15,17.15,0,0,0-9.86-.36,20.07,20.07,0,0,0-3.13,1.09l-3.61-2.08-4.3,2.48,3.56,2.06,0,0c-3.62,2.75-3.69,5.6.38,7.95A12.64,12.64,0,0,0,94.68,338h0c.4,0,.8,0,1.19,0a23.68,23.68,0,0,0,6.39-1.38c4.12-1.38,7.47-3,10.25-1.4,1.87,1.08,1.35,2.43-.7,3.61a8.48,8.48,0,0,1-1,.5,9.23,9.23,0,0,1-7.16,0l-3.78,3.79a17.65,17.65,0,0,0,13.9-.6l3.56,2.06,4.31-2.49L118.08,340c3.58-2.77,4-5.78-.19-8.23l-.07-.05C114,329.58,110.14,329.87,106.66,330.74Z" style="fill:#BA68C8"></path><g style="opacity:0.30000000000000004"><path d="M106.66,330.74h0c-1.47.37-2.88.85-4.16,1.29A38,38,0,0,1,98,333.42h0a8.17,8.17,0,0,1-2.13.2,4.52,4.52,0,0,1-2-.61c-1.39-.8-1.59-2,.42-3.29l.44-.27a10,10,0,0,1,1.18-.59,8.16,8.16,0,0,1,6.26-.14l3.6-3.64a17.15,17.15,0,0,0-9.86-.36,20.07,20.07,0,0,0-3.13,1.09l-3.61-2.08-4.3,2.48,3.56,2.06,0,0c-3.62,2.75-3.69,5.6.38,7.95A12.64,12.64,0,0,0,94.68,338h0c.4,0,.8,0,1.19,0a23.68,23.68,0,0,0,6.39-1.38c4.12-1.38,7.47-3,10.25-1.4,1.87,1.08,1.35,2.43-.7,3.61a8.48,8.48,0,0,1-1,.5,9.23,9.23,0,0,1-7.16,0l-3.78,3.79a17.65,17.65,0,0,0,13.9-.6l3.56,2.06,4.31-2.49L118.08,340c3.58-2.77,4-5.78-.19-8.23l-.07-.05C114,329.58,110.14,329.87,106.66,330.74Z" style="fill:#fff"></path></g><polygon points="84.83 326.22 89.17 324.25 92.74 325.82 89.13 323.74 84.83 326.22" style="fill:#f5f5f5;opacity:0.45"></polygon><path d="M95.37,324.87a20.26,20.26,0,0,1,9.25.31l-2.49,3.55,3.6-3.64A17.2,17.2,0,0,0,95.37,324.87Z" style="fill:#f5f5f5;opacity:0.45"></path><path d="M117.82,331.76l.07.05c4.18,2.45,3.77,5.46.19,8.23,3.17-3.45,2.6-5.86-.85-7.85s-7.84-2-10.57-1.45C110.14,329.87,114,329.58,117.82,331.76Z" style="fill:#f5f5f5;opacity:0.45"></path><polygon points="118.08 340.04 120.81 342.14 117.33 344.58 121.64 342.1 118.08 340.04" style="fill:#f5f5f5;opacity:0.45"></polygon><path d="M110.81,339.29a9.25,9.25,0,0,1-6.85.6l-4.09,3.24,3.78-3.79A9.23,9.23,0,0,0,110.81,339.29Z" style="fill:#f5f5f5;opacity:0.45"></path><path d="M98,333.43c-1.63.64-4,.53-5.16-.49s-.44-2.22,1.41-3.21c-2,1.32-1.81,2.49-.42,3.29a4.52,4.52,0,0,0,2,.61A8.17,8.17,0,0,0,98,333.43Z" style="fill:#f5f5f5;opacity:0.45"></path><path d="M88.36,328.31c-.3.27-2.89,2.68-1.75,5.1s5,4.22,8.07,4.56h0a12.64,12.64,0,0,1-5.94-1.71C84.67,333.91,84.74,331.06,88.36,328.31Z" style="fill:#f5f5f5;opacity:0.45"></path><path d="M53.12,324.3a27.42,27.42,0,0,1,10.15-9.39c16.59-9.58,43.49-9.58,60.08,0a27.42,27.42,0,0,1,10.15,9.39h2.3V333h0c-.31,6-4.44,12-12.42,16.62-16.59,9.58-43.49,9.58-60.08,0C55.29,345,51.13,339,50.83,333h0V324.3Z" style="fill:#BA68C8"></path><path d="M53.12,324.3a27.42,27.42,0,0,1,10.15-9.39c16.59-9.58,43.49-9.58,60.08,0a27.42,27.42,0,0,1,10.15,9.39h2.3V333h0c-.31,6-4.44,12-12.42,16.62-16.59,9.58-43.49,9.58-60.08,0C55.29,345,51.13,339,50.83,333h0V324.3Z" style="opacity:0.25"></path><path d="M93.31,307.73c10.87,0,21.75,2.39,30,7.18a27.42,27.42,0,0,1,10.15,9.39h2.3V333h0c-.31,6-4.44,12-12.42,16.62-8.29,4.79-19.17,7.18-30,7.18Z" style="opacity:0.1"></path><path d="M116.51,311.71a45.66,45.66,0,0,1,6.84,3.2,27.42,27.42,0,0,1,10.15,9.39h2.3V333h0c-.31,6-4.44,12-12.42,16.62a45.66,45.66,0,0,1-6.84,3.2Z" style="opacity:0.1"></path><path d="M70.11,311.71a45.66,45.66,0,0,0-6.84,3.2,27.42,27.42,0,0,0-10.15,9.39H50.83V333h0c.3,6,4.46,12,12.44,16.62a45.66,45.66,0,0,0,6.84,3.2Z" style="fill:#BA68C8;opacity:0.5"></path><path d="M123.35,307c16.59,9.58,16.59,25.12,0,34.69-14.51,8.39-36.92,9.43-53.41,3.15h0l-.66-.26a45.54,45.54,0,0,1-6-2.89c-13.84-8-16.14-20.11-6.89-29.47h0a32.59,32.59,0,0,1,6.89-5.2C79.86,297.38,106.76,297.38,123.35,307Z" style="fill:#BA68C8"></path><path d="M123.35,307c16.59,9.58,16.59,25.12,0,34.69-14.51,8.39-36.92,9.43-53.41,3.15h0l-.66-.26a45.54,45.54,0,0,1-6-2.89c-13.84-8-16.14-20.11-6.89-29.47h0a32.59,32.59,0,0,1,6.89-5.2C79.86,297.38,106.76,297.38,123.35,307Z" style="opacity:0.2"></path><path d="M56.38,312.17a18.54,18.54,0,0,0-4.45,15.13c1.47,8.43,13.28,15.53,17.34,17.23a45.54,45.54,0,0,1-6-2.89C49.43,333.66,47.13,321.53,56.38,312.17Z" style="fill:#f5f5f5;opacity:0.5"></path><path d="M130.24,336.43a18.54,18.54,0,0,0,4.45-15.13c-1.47-8.43-13.28-15.53-17.34-17.23a45.54,45.54,0,0,1,6,2.89C137.19,314.94,139.49,327.07,130.24,336.43Z" style="fill:#f5f5f5;opacity:0.5"></path><ellipse cx="93.33" cy="324.27" rx="39.49" ry="22.8" style="fill:#BA68C8"></ellipse><ellipse cx="93.33" cy="324.27" rx="39.49" ry="22.8" style="fill:#fff;opacity:0.4"></ellipse><path d="M55.63,331.08c-3.18-5.87-2.14-12.34,3.1-17.83a27,27,0,0,1,3.34-2.93,34.06,34.06,0,0,1,3.2-2.1c.63-.37,1.28-.72,2-1.06-1.65,2.7-1,5.6,8.26,6.14,18.2,1.06-4.87,18.46-4.87,18.46S58.88,326.09,55.63,331.08Z" style="fill:#fff;opacity:0.2"></path><path d="M57.5,326.26c-2.73-.3-4.08-3.11-3-6.27s4.14-5.47,6.87-5.17,4.08,3.12,3,6.28S60.24,326.57,57.5,326.26Z" style="fill:#fff;opacity:0.5"></path><path d="M86.3,340.76c.89-6.76,30.44-25.47,30.44-25.47s6.55-2.63,4.38-7.21a34.39,34.39,0,0,1,3.16,2c.68.49,1.32,1,1.92,1.52,8.79,7.62,8.81,17.62,0,25.25-.59.52-1.23,1-1.91,1.52a34.47,34.47,0,0,1-2.93,1.91c-1,.59-2,1.13-3.13,1.64-.86.41-1.76.79-2.66,1.15s-1.83.69-2.78,1a56.64,56.64,0,0,1-8.81,2.12c-.66.11-1.32.2-2,.29a68.15,68.15,0,0,1-8.82.55,66.54,66.54,0,0,1-10.78-.88S87.14,345.21,86.3,340.76Z" style="fill:#BA68C8"></path><path d="M86.3,340.76c.89-6.76,30.44-25.47,30.44-25.47s6.55-2.63,4.38-7.21a34.39,34.39,0,0,1,3.16,2c.68.49,1.32,1,1.92,1.52,8.79,7.62,8.81,17.62,0,25.25-.59.52-1.23,1-1.91,1.52a34.47,34.47,0,0,1-2.93,1.91c-1,.59-2,1.13-3.13,1.64-.86.41-1.76.79-2.66,1.15s-1.83.69-2.78,1a56.64,56.64,0,0,1-8.81,2.12c-.66.11-1.32.2-2,.29a68.15,68.15,0,0,1-8.82.55,66.54,66.54,0,0,1-10.78-.88S87.14,345.21,86.3,340.76Z" style="fill:#fff;opacity:0.30000000000000004"></path><path d="M114.15,312.25c11,6.37,11.46,16.52,1.34,23.19q-.64.44-1.35.84c-11.49,6.63-30.11,6.63-41.6,0s-11.5-17.39,0-24c.47-.27,1-.53,1.45-.78C85.54,305.63,103.12,305.89,114.15,312.25Z" style="fill:#BA68C8"></path><path d="M114.15,312.25c11,6.37,11.46,16.52,1.34,23.19q-.64.44-1.35.84c-11.49,6.63-30.11,6.63-41.6,0s-11.5-17.39,0-24c.47-.27,1-.53,1.45-.78C85.54,305.63,103.12,305.89,114.15,312.25Z" style="opacity:0.2"></path><path d="M113.21,312.78c11,6.34,11,16.63,0,23s-28.79,6.34-39.77,0-11-16.63,0-23S102.23,306.44,113.21,312.78Z" style="fill:#BA68C8"></path><path d="M113.21,312.78c11,6.34,11,16.63,0,23s-28.79,6.34-39.77,0-11-16.63,0-23S102.23,306.44,113.21,312.78Z" style="opacity:0.5"></path><path d="M113.21,317.31c-11-6.34-28.79-6.34-39.77,0-4.49,2.6-7.15,5.85-8,9.22.81,3.37,3.47,6.62,8,9.22,11,6.34,28.79,6.34,39.77,0,4.49-2.6,7.14-5.85,8-9.22C120.35,323.16,117.7,319.91,113.21,317.31Z" style="fill:#BA68C8"></path><path d="M113.21,317.31c-11-6.34-28.79-6.34-39.77,0-4.49,2.6-7.15,5.85-8,9.22.81,3.37,3.47,6.62,8,9.22,11,6.34,28.79,6.34,39.77,0,4.49-2.6,7.14-5.85,8-9.22C120.35,323.16,117.7,319.91,113.21,317.31Z" style="opacity:0.35000000000000003"></path><path d="M111,329.16c0-.55,0-2.79,0-3.36,0-1.38-1-2.71-3-3.91l-.07-.05c-3.78-2.18-7.68-1.89-11.16-1h0c-1.48.37-2.88.85-4.16,1.29a40,40,0,0,1-4.47,1.38h0a8.06,8.06,0,0,1-2.12.2,4.52,4.52,0,0,1-1.76-.47l.14-.1.44-.27a11.66,11.66,0,0,1,1.18-.58,8.09,8.09,0,0,1,6.25-.14l3.61-3.64v-3.34a17.15,17.15,0,0,0-9.86-.36,20.07,20.07,0,0,0-3.13,1.09l-3.61-2.09L75,316.3v3.34l1.47.85a3.57,3.57,0,0,0-.63,1.95v3.33c0,1.38,1,2.7,3.07,3.9a12.53,12.53,0,0,0,5.94,1.71h0c.4,0,.8,0,1.19,0A23.52,23.52,0,0,0,92.4,330l1.25-.43L90,333.21v3.34a17.7,17.7,0,0,0,13.9-.6l3.56,2.05,4.31-2.48v-3.34l-1.48-.85A4,4,0,0,0,111,329.16Zm-9.08-.29a8.48,8.48,0,0,1-1,.5,9.25,9.25,0,0,1-7,.1c3.37-1.19,6.18-2.23,8.58-1C102.34,328.64,102.16,328.75,102,328.87Z" style="fill:#BA68C8"></path><path d="M96.81,320.82h0c-1.48.37-2.88.85-4.16,1.29a40,40,0,0,1-4.47,1.38h0a8.06,8.06,0,0,1-2.12.2,4.56,4.56,0,0,1-2-.61c-1.38-.8-1.58-2,.43-3.29.14-.1.29-.19.44-.28A11.66,11.66,0,0,1,86,319a8.13,8.13,0,0,1,6.25-.14l3.61-3.64a17.15,17.15,0,0,0-9.86-.36,20.07,20.07,0,0,0-3.13,1.09l-3.61-2.09L75,316.3l3.56,2.06,0,0c-3.62,2.74-3.69,5.59.38,7.94a12.66,12.66,0,0,0,5.94,1.72h0A11.81,11.81,0,0,0,86,328a23.52,23.52,0,0,0,6.38-1.38c4.13-1.38,7.48-3,10.26-1.4,1.86,1.07,1.35,2.43-.7,3.61a8.48,8.48,0,0,1-1,.5,9.23,9.23,0,0,1-7.16.05L90,333.21a17.7,17.7,0,0,0,13.9-.6l3.56,2.05,4.31-2.48-3.56-2.06c3.58-2.77,4-5.78-.19-8.23l-.07-.05C104.19,319.66,100.29,320,96.81,320.82Z" style="fill:#BA68C8"></path><g style="opacity:0.30000000000000004"><path d="M96.81,320.82h0c-1.48.37-2.88.85-4.16,1.29a40,40,0,0,1-4.47,1.38h0a8.06,8.06,0,0,1-2.12.2,4.56,4.56,0,0,1-2-.61c-1.38-.8-1.58-2,.43-3.29.14-.1.29-.19.44-.28A11.66,11.66,0,0,1,86,319a8.13,8.13,0,0,1,6.25-.14l3.61-3.64a17.15,17.15,0,0,0-9.86-.36,20.07,20.07,0,0,0-3.13,1.09l-3.61-2.09L75,316.3l3.56,2.06,0,0c-3.62,2.74-3.69,5.59.38,7.94a12.66,12.66,0,0,0,5.94,1.72h0A11.81,11.81,0,0,0,86,328a23.52,23.52,0,0,0,6.38-1.38c4.13-1.38,7.48-3,10.26-1.4,1.86,1.07,1.35,2.43-.7,3.61a8.48,8.48,0,0,1-1,.5,9.23,9.23,0,0,1-7.16.05L90,333.21a17.7,17.7,0,0,0,13.9-.6l3.56,2.05,4.31-2.48-3.56-2.06c3.58-2.77,4-5.78-.19-8.23l-.07-.05C104.19,319.66,100.29,320,96.81,320.82Z" style="fill:#fff"></path></g><polygon points="74.98 316.3 79.32 314.33 82.89 315.9 79.28 313.81 74.98 316.3" style="fill:#f5f5f5;opacity:0.45"></polygon><path d="M85.52,315a20.12,20.12,0,0,1,9.25.31l-2.5,3.55,3.61-3.64A17.2,17.2,0,0,0,85.52,315Z" style="fill:#f5f5f5;opacity:0.45"></path><path d="M108,321.84l.07.05c4.18,2.45,3.77,5.46.19,8.23,3.17-3.45,2.59-5.86-.85-7.85s-7.84-2-10.57-1.45C100.29,320,104.19,319.66,108,321.84Z" style="fill:#f5f5f5;opacity:0.45"></path><polygon points="108.23 330.12 110.96 332.22 107.48 334.66 111.79 332.18 108.23 330.12" style="fill:#f5f5f5;opacity:0.45"></polygon><path d="M101,329.37a9.28,9.28,0,0,1-6.86.6L90,333.21l3.78-3.79A9.23,9.23,0,0,0,101,329.37Z" style="fill:#f5f5f5;opacity:0.45"></path><path d="M88.14,323.51c-1.62.64-4,.53-5.15-.49s-.45-2.22,1.41-3.21c-2,1.32-1.81,2.49-.43,3.29a4.56,4.56,0,0,0,2,.61A8.06,8.06,0,0,0,88.14,323.51Z" style="fill:#f5f5f5;opacity:0.45"></path><path d="M78.51,318.39c-.31.27-2.9,2.68-1.75,5.09,1.21,2.58,5,4.23,8.07,4.56h0a12.66,12.66,0,0,1-5.94-1.72C74.82,324,74.89,321.13,78.51,318.39Z" style="fill:#f5f5f5;opacity:0.45"></path></g><g id="freepik--character--inject-56"><g id="freepik--Bottom--inject-56"><path d="M136.3,382.18l.91,29.72a10.52,10.52,0,0,1-7.6,7.58c-6.45,1.74-7.86-6.36-7.86-6.36l-6.82-28.25Z" style="fill:#ffa8a7"></path><path d="M120.83,425.72a8.2,8.2,0,0,0,.65,2.76c.57,1.08,3.66,2.3,5.35,3a9.4,9.4,0,0,1,5.54,4.64,18.75,18.75,0,0,0,9.31,8,26.87,26.87,0,0,0,15.95.45c6.53-1.69,6.77-5.63,6.77-5.63s.08-3.7-1.61-4.15S120.83,425.72,120.83,425.72Z" style="fill:#263238"></path><path d="M121.33,411.37c-.5.12-.53.69-.5,2.38s-.47,3.85-.56,5.48a19.3,19.3,0,0,0,.55,7c2.08,3.06,5.92,2.28,9.81,5.38,3.58,2.83,7.36,9.87,16.16,10.94s15.18-2.17,16.59-4.76-.22-4.81-6-7.39c-6.14-2.74-14.61-11.65-14.61-11.65-1-1.22-2.08-2.43-3.05-3.74a7.2,7.2,0,0,1-.86-2.19,14.3,14.3,0,0,1-.51-2.59c0-.46-.13-1-.54-1.19a1.13,1.13,0,0,0-.81,0,22.15,22.15,0,0,0-3,1.24,26.48,26.48,0,0,1-4.9,1.6,1.88,1.88,0,0,0-1.23.6,1.68,1.68,0,0,0-.25.94c-.06.9-.09,1.81-.07,2.71a2.28,2.28,0,0,1-.07.69.65.65,0,0,1-.5.46c-.41.05-.69-.41-.8-.81a7.62,7.62,0,0,0-1.16-1.93,3.7,3.7,0,0,0-2-1.53,9.13,9.13,0,0,1-1.4-.71Z" style="fill:#37474f"></path><path d="M141,440.88a11,11,0,0,1,5.72-9.89c6.28-3.83,10.42-2,12.53-.69,2.51,1.54,6.18,4.86,4.31,7.62-2,3-5.5,4.58-12.17,5.16S141,440.88,141,440.88Z" style="fill:#fafafa"></path><path d="M130.55,421.28a.76.76,0,0,0,.57-.35c.66-1.09,5.13-5.32,9.82-4.38.2-.55-.23-1.07-1.22-1.56-4.86-.07-9.1,3.9-9.9,5.22a.69.69,0,0,0,.26,1A.78.78,0,0,0,130.55,421.28Z" style="fill:#fafafa"></path><path d="M143.83,419.81a2.25,2.25,0,0,0-1.42-1.5c-4.6.25-8.53,3.95-9.3,5.21a.71.71,0,0,0,.27,1,.74.74,0,0,0,.46.09.76.76,0,0,0,.57-.35C135.06,423.19,139.3,419.18,143.83,419.81Z" style="fill:#fafafa"></path><path d="M151.6,426.71a4.14,4.14,0,0,0-2.2-1.77c-4.77,0-8.91,3.92-9.71,5.22a.71.71,0,0,0,.27,1,.76.76,0,0,0,.46.09.75.75,0,0,0,.58-.35C141.7,429.73,146.64,425.09,151.6,426.71Z" style="fill:#fafafa"></path><path d="M137.13,427.92a.76.76,0,0,0,.57-.36c.66-1.08,5-5.21,9.67-4.4a2.58,2.58,0,0,0-1.67-1.54c-4.59.25-8.53,4-9.3,5.22a.69.69,0,0,0,.27,1A.77.77,0,0,0,137.13,427.92Z" style="fill:#fafafa"></path><path d="M174.84,361.9l2.62,29.54a12.14,12.14,0,0,1-8,7.87c-6.4,1.89-8-6.16-8-6.16l-7.54-28.07Z" style="fill:#ffa8a7"></path><path d="M160.84,405.77a8.14,8.14,0,0,0,.72,2.74c.6,1.06,3.72,2.2,5.43,2.84a9.38,9.38,0,0,1,5.65,4.49,18.73,18.73,0,0,0,9.51,7.78,26.78,26.78,0,0,0,16,0c6.49-1.85,6.63-5.8,6.63-5.8s0-3.7-1.72-4.11S160.84,405.77,160.84,405.77Z" style="fill:#263238"></path><path d="M161,391.41c-.5.13-.51.7-.44,2.39s-.37,3.86-.42,5.49a19.31,19.31,0,0,0,.73,7c2.16,3,6,2.12,9.95,5.12,3.64,2.74,7.61,9.68,16.44,10.52s15.11-2.56,16.46-5.18-.34-4.8-6.19-7.24c-6.21-2.58-14.91-11.27-14.91-11.27-1.07-1.19-2.14-2.37-3.14-3.66a7.36,7.36,0,0,1-.92-2.17,14,14,0,0,1-.57-2.57c-.06-.46-.16-1-.58-1.18a1.2,1.2,0,0,0-.81,0,23.41,23.41,0,0,0-3,1.32,26.25,26.25,0,0,1-4.86,1.72,2.06,2.06,0,0,0-1.22.63,2,2,0,0,0-.22,1c0,.91,0,1.81,0,2.72a2,2,0,0,1-.05.69.69.69,0,0,1-.48.47c-.42.06-.7-.4-.83-.79a7.65,7.65,0,0,0-1.21-1.9,3.7,3.7,0,0,0-2.05-1.48,8.92,8.92,0,0,1-1.42-.67Z" style="fill:#37474f"></path><path d="M181.41,420.4a11.06,11.06,0,0,1,5.46-10c6.19-4,10.37-2.25,12.51-1,2.55,1.47,6.31,4.7,4.51,7.5-1.95,3-5.39,4.72-12,5.47S181.41,420.4,181.41,420.4Z" style="fill:#fafafa"></path><path d="M170.44,401.08a.75.75,0,0,0,.56-.37c.64-1.11,5-5.44,9.71-4.63.18-.55-.26-1.06-1.26-1.53-4.86.05-9,4.14-9.77,5.47a.7.7,0,0,0,.3,1A.73.73,0,0,0,170.44,401.08Z" style="fill:#fafafa"></path><path d="M183.68,399.26a2.26,2.26,0,0,0-1.46-1.46c-4.59.37-8.42,4.17-9.16,5.45a.71.71,0,0,0,.29,1,.78.78,0,0,0,1-.29C175,402.87,179.13,398.76,183.68,399.26Z" style="fill:#fafafa"></path><path d="M191.63,406a4.14,4.14,0,0,0-2.24-1.72c-4.78.16-8.82,4.15-9.58,5.47a.69.69,0,0,0,.3,1,.74.74,0,0,0,.46.08.75.75,0,0,0,.56-.37C181.8,409.24,186.62,404.47,191.63,406Z" style="fill:#fafafa"></path><path d="M177.19,407.54a.75.75,0,0,0,.56-.37c.63-1.09,4.91-5.33,9.56-4.65A2.57,2.57,0,0,0,185.6,401c-4.59.37-8.43,4.18-9.16,5.46a.69.69,0,0,0,.29,1A.76.76,0,0,0,177.19,407.54Z" style="fill:#fafafa"></path><path d="M172.6,334.34c-1.58-5-4-7.58-8.88-10.64-11.09-7-47.19-28.44-47.19-28.44s-7.15,1.56-31,6.27L58,311.64c1.18,11,4,16.58,7,20,4.49,5.18,8.56,8.37,20.79,15.49,10.12,5.9,20.45,12.7,23.23,14.5,3.16,2.05,3.39,4,3.39,8.25,0,12,3.12,20.87,6.53,34.1a27.46,27.46,0,0,0,18.51-3.39s1.29-41.13,0-49c-.83-5.1-2.78-8.88-9.39-14,0,0,2.42,1.31,5,2.62,7.06,3.58,14.84,7.91,15.28,9.75,2.16,9.07,2.21,9.54,5.53,20.56,2,6.67,5,15,5,15,3.87,2,14.35-.7,18.08-4.32C177,381.19,175,341.94,172.6,334.34Z" style="fill:#37474f"></path><path d="M125.83,407.5c-2.66-10.71-6.39-26.3-7-31.44-.32-2.79-.51-5.18-.69-7.29-.33-4-.57-6.91-1.35-9-1-2.64-14.08-11.87-27.39-21.09l-3-2.06c-.73-.51-1.45-1-2.15-1.48-7.91-5.41-13.13-9-14.8-22.38l-.78.09c1.71,13.76,7.34,17.61,15.13,22.94L86,337.29l3,2.06c9.13,6.32,26.11,18.09,27.11,20.72.74,2,1,4.82,1.3,8.77.18,2.11.37,4.51.69,7.3.57,5.16,4.28,20.67,6.94,31.4Z" style="fill:#263238"></path><path d="M80.12,333l-.47-.63c3.25-2.41,6.48-8.6,2-15.77l.68-.41C87.08,323.79,83.61,330.4,80.12,333Z" style="fill:#263238"></path><path d="M154.35,372.07c-.51-2.43-2.13-13-2.33-14.46-1.1-8.18-1.22-9.49-3.54-12.12-1.6-1.82-17.17-9.72-17.17-9.72l-11.55-11.18c3.71-3.5,4.63-11.17,4.63-11.17-3.19,8.18-11.25,10.73-11.25,10.73,5.74,4.63,10.85,9.71,14.91,13.43,0,0,2.42,1.31,5,2.62,7.06,3.58,14.84,7.91,15.28,9.75,2.16,9.07,2.21,9.54,5.53,20.56Q154.1,371.28,154.35,372.07Z" style="fill:#263238"></path><path d="M118,400.64c3.85.71,16.26-.37,19.77-4.37v9.05s-1.3,2-8,3.29-10.19-.46-10.19-.46Z" style="fill:#263238"></path><path d="M157.51,381.66c3.84.72,15.69-.56,19.19-4.56l.84,7.62s-1.71,2.71-8.39,4-9.9-.44-9.9-.44Z" style="fill:#263238"></path></g><g id="freepik--Top--inject-56"><g id="freepik--Arm--inject-56"><path d="M166.35,264.1c.16,6.89,1.11,23-1.79,39.27-2.26,12.71-5.92,16.59-9.37,18.32-3.92,2-8.74-.28-12.92-4.53-7.52-7.65-17.15-25.37-17.15-25.37l-8-46.64c3.59,0,10.45.4,14.82,3.71,6.3,4.79,15.69,36.82,15.69,36.82l4.69-22.94Z" style="fill:#f5f5f5"></path><path d="M147.65,285.68c-2,8.66-4.45,13.78-3.89,22.94-2.43-7.39.28-18.55,3-26.24Z" style="fill:#e0e0e0"></path></g><path id="freepik--Chest--inject-56" d="M128.31,249.25c-8.26-6.11-21.27-5.77-39.91,1.64-21,8.33-25.66,23.22-28.4,34.87s-2.07,23.84-1.88,32c3.71,2.38,13,3.23,24.42,2.37,20.83-1.58,36.87-15.63,38.17-20.23,0-3.84.06-11.81,2-16.9,2.66-6.94,4.44-8,9-18.12C134,259.79,134.75,254,128.31,249.25Z" style="fill:#fafafa"></path><path id="freepik--chest--inject-56" d="M128.31,249.25a20.72,20.72,0,0,0-6.78-3.25,29.83,29.83,0,0,0-7.46-1,54.76,54.76,0,0,0-14.88,2.28c-2.43.66-4.81,1.48-7.18,2.33L88.49,251l-3.44,1.53A44.74,44.74,0,0,0,72.72,261a39.45,39.45,0,0,0-8.39,12.32A70.85,70.85,0,0,0,60,287.72c-2,9.85-1.73,20-1.4,30l-.22-.4a14.27,14.27,0,0,0,3.88,1.49,35.1,35.1,0,0,0,4.22.73,68.42,68.42,0,0,0,8.6.41,67.7,67.7,0,0,0,17.1-2,60.72,60.72,0,0,0,8.16-2.76,63,63,0,0,0,7.67-3.93,51.83,51.83,0,0,0,7-5,38,38,0,0,0,3.11-3,11.2,11.2,0,0,0,2.34-3.5v.06a66.28,66.28,0,0,1,1.17-13.7c1-4.52,3.35-8.56,5.59-12.53,1.13-2,2.18-4,3.17-6.09a32.6,32.6,0,0,0,2.54-6.36,10.76,10.76,0,0,0-.35-6.73A12.81,12.81,0,0,0,128.31,249.25Zm0,0a12.73,12.73,0,0,1,4.34,5.22,10.9,10.9,0,0,1,.39,6.75,32.79,32.79,0,0,1-2.52,6.39q-1.47,3.11-3.14,6.11c-2.24,4-4.51,8-5.46,12.52a67,67,0,0,0-1,13.65V300a11.63,11.63,0,0,1-2.4,3.7,34.66,34.66,0,0,1-3.12,3.06,52.82,52.82,0,0,1-7,5.15,64.58,64.58,0,0,1-7.72,4.07,59.63,59.63,0,0,1-8.24,2.9,68.71,68.71,0,0,1-17.3,2.07,68.92,68.92,0,0,1-8.73-.38,35.58,35.58,0,0,1-4.33-.73,14.73,14.73,0,0,1-4.19-1.62l-.22-.14v-.26c-.3-10-.51-20.26,1.55-30.22.52-2.48,1.17-4.92,1.89-7.35a52.92,52.92,0,0,1,2.65-7.12,39.85,39.85,0,0,1,8.66-12.4,45,45,0,0,1,12.54-8.43l3.48-1.5,3.54-1.32c2.38-.82,4.78-1.61,7.21-2.27A54.7,54.7,0,0,1,114.07,245a29.89,29.89,0,0,1,7.47,1A20.74,20.74,0,0,1,128.31,249.25Z" style="fill:#e0e0e0"></path><path d="M117.29,279.21l-4.35-.88-2.83,2.61-.1.1-1,2.34c0,2.35,3.51,5.78,5.24,6.46,0,0,3.13-2.11,3.92-4.26S117.29,279.21,117.29,279.21Z" style="fill:#BA68C8"></path><path d="M121.32,251.25a15.34,15.34,0,0,0-5.1.24,14.94,14.94,0,0,0-4.77,1.65,13.48,13.48,0,0,0-5.64,6.95,33.39,33.39,0,0,0-2.08,9.93,29.59,29.59,0,0,0,1,10.22,23.85,23.85,0,0,0,1,2.87,3.2,3.2,0,0,0,1.23,1.76c.75.37,1.36-.14,1.78-.74a8.35,8.35,0,0,0,1.34-2.9c0-.09-.11-.38-.21-.22-.5.74-.9,1.53-1.4,2.27a2.76,2.76,0,0,1-.81.89c-.64.35-.91-.59-1.1-1a23.19,23.19,0,0,1-1.42-4.39,30.05,30.05,0,0,1-.46-9.6c.56-5.55,2.08-12.39,7.28-15.44a14.62,14.62,0,0,1,4.44-1.62c.8-.16,1.6-.27,2.41-.36s1.7-.09,2.53-.26c.09,0,.08-.21,0-.22Z" style="fill:#f5f5f5"></path><g id="freepik--Head--inject-56"><path id="freepik--Neck--inject-56" d="M121.64,254.14c-2.61-.13-7.74.43-10.24,8.91-1.59,5.37-.42,13,1.54,15.28,5.94,1.57,11.61,3,11.61,3,.75-3.14,10.4-22.51,8.15-25.73Z" style="fill:#ffa8a7"></path><g id="freepik--head--inject-56"><path d="M143.32,297a29.6,29.6,0,0,1-8.9,1.15c-2.29-.12-2.24-.55-2-2.37a23.34,23.34,0,0,1,1.66-5.34Z" style="fill:#b16668"></path><path d="M120,275.53c-1,4.5-5.29,11.49-.48,14.08,5.28,2.85,12.2,4.77,17.26,6s12.44,3.22,21.53-.16c10.89-4.06,15.86-27,1.12-36.66-12-7.87-29.06-4.07-34.69,5.11A33,33,0,0,0,120,275.53Z" style="fill:#ffa8a7"></path><path d="M135.88,280.29c-1.71,2,.8,2.35,2.9,3.19.84.33,1.54.11,2.39,2a5.58,5.58,0,0,0,2.47,2.91c-1.91,1.71-2,4.39-1.37,6.47,1.13-1.39,2.74-2.94,4.12-3.09-2.32,3.41-3.09,5.62-3.19,7.71,4.45.81,22.35,1.56,28.85-13.87,2.3-5.47,1.56-11.59.39-13.43a15,15,0,0,0-3.82-11,21.06,21.06,0,0,0-10.78-6.87c-9.47-2.71-18,.07-21.65,1.09a21.09,21.09,0,0,1-4.22.89c-2,.81-10.37,5.43-8.23,19,0,.16.56.45.7.54a4.73,4.73,0,0,0,.9.45,3.84,3.84,0,0,0,2.32.24,1.93,1.93,0,0,1-.07-2.91,6.43,6.43,0,0,1,2.9-1.62,10.7,10.7,0,0,1,3.55-.49,8.66,8.66,0,0,1,5.69,2.28,4.25,4.25,0,0,1,1.48,3.62C140.9,279.11,139.88,280.42,135.88,280.29Z" style="fill:#263238"></path><path d="M137,253a10.55,10.55,0,0,0-1.73,1.92l-1.74,2.25a1,1,0,0,0-.28.67c0,.32.35.52.65.64a5.26,5.26,0,0,0,4.11-.24c1.58-.72,2.85-2.05,4.52-2.59,1.89-.61,4.13-.36,6.09-.43,1.25,0,2.5,0,3.75-.07a36.6,36.6,0,0,1,8.66.28,21,21,0,0,1,6.64,4.63,14,14,0,0,0-4-5.48c-1.56-1.13-3.34-2.5-5.37-2.41a4.13,4.13,0,0,1-2.67-.76,4.08,4.08,0,0,0-2.17-1c-.53,0-1,.22-1.57.2-1,0-1.82-.91-2.82-1a13.14,13.14,0,0,0-2.58.48c-1,.1-2-.34-3-.27a5.68,5.68,0,0,0-1.52.4,25.94,25.94,0,0,0-3.84,2A10,10,0,0,0,137,253Z" style="fill:#f28f8f"></path><path d="M125.12,276.89c-1.33-.09-5.29-.59-6.48,2.92l-1.88-.49A7,7,0,0,1,125.12,276.89Z" style="fill:#f28f8f"></path></g></g><g id="freepik--arm--inject-56"><path d="M90.33,265.52c7.43-.06,10.54,6.79,14.24,17.91,4.07,12.22,13.05,40.84,13.05,40.84l-10.54,13.62s-4.15-2.44-11-13.8c-7.73-12.92-9.52-15.38-14.28-26C77.72,288.87,77.25,269.84,90.33,265.52Z" style="fill:#ffa8a7"></path><path d="M107.74,293.14c-3.57,8-6.63,22.46-6,30.4.41,5.68,6.29-5.1,10.78-15.55Z" style="fill:#f28f8f"></path><path d="M158.12,255.44l-.11,0-4.66-1.18a2.1,2.1,0,0,1-.65-.23,3.56,3.56,0,0,1-.49-.46,5.07,5.07,0,0,0-3.74-1.1h-3.12s-2.44-.77-2.77-.8a9,9,0,0,0-3.17.33l-2.47.63s-.73-.4-1-.58c-.89-.59-1.34-.4-2.37-.15a37.2,37.2,0,0,0-3.87,1.08,28.25,28.25,0,0,0-3.65,1.39c-1.11.53-3,4-6.39,11.54a90,90,0,0,0-4.72,11.74c-1,3.16-4.62,15.3-7.68,24.14-4.94,14.31-7.39,21.71-4,29.92,2.38,5.7,4.91,9.17,10.92,7.3s12-10.8,12.94-19.26c1.33-11.73,1.91-24.58,3.6-36.79.49-3.47,1-4,2.3-4.85a11.93,11.93,0,0,0,3.55-3.66,39.08,39.08,0,0,0,2.31-4.68c.88-1.77,1.88-3.47,2.87-5.18a10,10,0,0,1,1.31-1.9,10.55,10.55,0,0,1,3-2c1.51-.78,2.93-1.63,4.5-2.28a5.63,5.63,0,0,1,1.26-.41,8.33,8.33,0,0,1,1.73,0,13.27,13.27,0,0,0,2.95-.26,3,3,0,0,0,1.84-.91c.27-.34.36-.9,0-1.16A.76.76,0,0,0,158.12,255.44Z" style="fill:#ffa8a7"></path><path d="M136.94,252.6c-.75.35-1.48.69-2.23,1s-1.48.65-2.18,1a42.4,42.4,0,0,1-4.35,2.23,39.83,39.83,0,0,1,4-2.8,12,12,0,0,1,2.29-1A11.13,11.13,0,0,1,136.94,252.6Z" style="fill:#f28f8f"></path><path d="M133.56,251.87l-4,1.3c-.67.24-1.33.48-2,.75l-1,.42-.47.23a1.79,1.79,0,0,0-.35.28,18,18,0,0,0-2.19,3.5c-.65,1.25-1.26,2.52-1.85,3.8-1.23,2.53-2.4,5.1-3.58,7.66s-2.27,5.15-3.24,7.81c.35-1.37.78-2.72,1.23-4.06s1-2.65,1.54-3.95c1.08-2.62,2.26-5.18,3.44-7.75.62-1.27,1.25-2.54,1.92-3.79a15.72,15.72,0,0,1,2.37-3.59C128,253,130.81,252.55,133.56,251.87Z" style="fill:#f28f8f"></path><path d="M138.89,258.32c1-.74,2-1.46,3.09-2.15a11.67,11.67,0,0,1,3.5-1.54,33.43,33.43,0,0,1,3.72-.71,9,9,0,0,1,3.77.2,7.71,7.71,0,0,0-1.86,0c-.61.06-1.23.16-1.83.28-1.22.24-2.43.52-3.63.85a12.49,12.49,0,0,0-3.41,1.34C141.14,257.2,140,257.82,138.89,258.32Z" style="fill:#f28f8f"></path><path d="M145.35,252.44a28.22,28.22,0,0,0-2.91.94c-.94.35-1.94.69-2.79,1.1s-1.73,1.07-2.6,1.6-1.76,1.05-2.67,1.54c.78-.67,1.58-1.32,2.4-1.94s1.64-1.22,2.54-1.76a14.2,14.2,0,0,1,3-1.08A10,10,0,0,1,145.35,252.44Z" style="fill:#f28f8f"></path><path d="M128.05,310.67c.8-9.11,1.45-18.61,2.71-27.74.49-3.47,1-4,2.3-4.85a11.93,11.93,0,0,0,3.55-3.66,24.09,24.09,0,0,0,1.91-3.84c-1.25,2.41-2.78,4.57-5.48,5.77-2.53,1.13-5.29-.16-4.9,1.73s1.44,2.69.77,11.25C128.44,295.28,128.06,310.64,128.05,310.67Z" style="fill:#f28f8f"></path><path d="M139.17,269.25l0-.06h0Z" style="fill:#f28f8f"></path><path d="M90,264.74c4.71,0,8.33,2.34,10.53,7.05s8.43,24,8.43,24l3.48-10.84s-.06,4.41,6.56,8.53,10.54,1.4,10.54,1.4-1.11,18.61-1.91,24.31-4.47,17.06-13.74,20.31c-5.75,2-9.94-2.57-16-11.6s-14-22.61-16.51-29.4S73.88,272.65,90,264.74Z" style="fill:#f5f5f5"></path><path d="M109,295.78c-2.88,9.27-6.9,19.75-7.3,27.24-.83-13.41,6.16-30.74,6.16-30.74Z" style="fill:#e0e0e0"></path><path d="M127.5,302.57a2,2,0,0,0-1.07-.12c-.42,0-.84,0-1.26,0-.7,0-1.4-.1-2.09-.19a21,21,0,0,1-4.36-1,23.07,23.07,0,0,1-3.89-1.76c-1.57-.89-2.94-2-4.41-3.06-.2-.14-.27.16-.18.3a11.35,11.35,0,0,0,3.45,3.31,19.83,19.83,0,0,0,4.4,2.24,21,21,0,0,0,4.69,1.1,16.42,16.42,0,0,0,2.53.08c.41,0,.81,0,1.22-.08s.93,0,1.14-.32S127.64,302.66,127.5,302.57Z" style="fill:#e0e0e0"></path></g></g><path d="M144.19,225a26,26,0,0,1,7.55-4.05c2.29-.77,4.61-1.5,7-2.07,4.32-1,9.31-1.65,13.49.27a4.41,4.41,0,0,1,2.4,2.23,3.6,3.6,0,0,1-.34,3.05c-1.21,2.21-3.67,3.54-5.93,4.4a52.84,52.84,0,0,1-8.11,2.21,79.83,79.83,0,0,1-8.13,1.26,57.41,57.41,0,0,1-8,.37,18.51,18.51,0,0,1-3.93-.54c-.84-.21-2.12-.63-1.68-1.78a3.43,3.43,0,0,1,1-1.17,16.84,16.84,0,0,1,1.6-1.33,21.23,21.23,0,0,1,3.39-2,33.17,33.17,0,0,1,7.72-2.56,50.16,50.16,0,0,1,15.54-1.17,22.6,22.6,0,0,1,7.33,1.85c1.86.89,4.56,2.63,4.16,5a5.12,5.12,0,0,1-1.57,2.67,15.89,15.89,0,0,1-3,2.34,25.37,25.37,0,0,1-7.39,2.86,60.73,60.73,0,0,1-7.83,1.23,35.13,35.13,0,0,1-7.25.07,21.34,21.34,0,0,1-3.46-.66,18.42,18.42,0,0,1-1.77-.6,3.13,3.13,0,0,1-1.54-.93c-.66-1,.34-2,1-2.65a10.46,10.46,0,0,1,3.37-2,40.11,40.11,0,0,1,7.37-2,36.21,36.21,0,0,1,7.49-.63,27.23,27.23,0,0,1,3.82.33,7.13,7.13,0,0,1,3.28,1.08c2.16,1.64.32,4.24-1.15,5.6a15.08,15.08,0,0,1-7,3.26,36.12,36.12,0,0,1-7.48.86,20,20,0,0,1-7.11-1.1c-.41-.16-1-.3-1.14-.76a1.25,1.25,0,0,1,.3-1.23,4.79,4.79,0,0,1,3.06-1.62,19.57,19.57,0,0,1,3.9-.16,32.9,32.9,0,0,1,4,.36,18.94,18.94,0,0,1,3.73.89,7.4,7.4,0,0,1,3.06,1.8c1.76,2.07-1.56,4-3.19,4.52a15.15,15.15,0,0,1-3.79.54,22.39,22.39,0,0,1-3.66-.1,13.54,13.54,0,0,1-3.42-.82c-.91-.36-2.19-.88-2.4-2s.74-1.83,1.58-2.24a6.76,6.76,0,0,1,3.7-.66c1.75.21,3.95,1.57,3.62,3.61s-3.11,3.17-5,3.14c-.93,0-2.37-.2-2.92-1.07s.19-1.78.95-2.12a2.6,2.6,0,0,1,2.8.47,2.76,2.76,0,0,1,.74,2.54,3.06,3.06,0,0,1-4.46,2.07c-.33-.17,0-.86.36-.67a2.64,2.64,0,0,0,2.83-.27,2,2,0,0,0-2.37-3.3c-1.41,1,1.41,1.55,2.07,1.57a5.43,5.43,0,0,0,2.87-.7c.82-.47,1.75-1.26,1.46-2.31-.52-1.91-3.05-2.38-4.72-2.12a4.15,4.15,0,0,0-2.7,1.26c-.68,1,1.33,1.76,2,2a16.06,16.06,0,0,0,6.12.86c2.18-.05,4.77-.19,6.49-1.7a1.83,1.83,0,0,0,.78-1.23c0-.57-.59-1-1-1.28a10.68,10.68,0,0,0-3-1.35,27,27,0,0,0-6.64-.91,19.64,19.64,0,0,0-3.43.11,6.24,6.24,0,0,0-1.54.4,3.73,3.73,0,0,0-.78.44c-.14.11-.59.44-.6.64,0,.43,1.16.67,1.47.77a14.26,14.26,0,0,0,1.59.41,20.21,20.21,0,0,0,3.1.39,32.88,32.88,0,0,0,6.19-.35,22.27,22.27,0,0,0,6.62-1.8,10.52,10.52,0,0,0,2.88-2,4.27,4.27,0,0,0,1.54-2.63c0-1.22-1.33-1.81-2.33-2.06a20,20,0,0,0-3.07-.48,31.89,31.89,0,0,0-6.48.07,43.05,43.05,0,0,0-6.16,1.13,19,19,0,0,0-6.44,2.5,5.71,5.71,0,0,0-1.29,1.21c-.16.2-.35.45-.23.73s.61.47.89.59a17.62,17.62,0,0,0,2.93,1,25.34,25.34,0,0,0,6.08.58,50.68,50.68,0,0,0,6.27-.54,46.61,46.61,0,0,0,6.81-1.35,21.53,21.53,0,0,0,6.26-2.86c1.41-1,3.94-2.84,3.06-4.88a5.88,5.88,0,0,0-2.32-2.32,13.19,13.19,0,0,0-3-1.41,26.48,26.48,0,0,0-6.36-1.21,51.24,51.24,0,0,0-13.19,1c-4.53.85-9.16,2.29-12.78,5.26a15,15,0,0,0-1.25,1.13c-.57.62.25.89.77,1a16.5,16.5,0,0,0,3.35.55,45.82,45.82,0,0,0,6.73-.15A79.47,79.47,0,0,0,164,229.33a25,25,0,0,0,6.78-2.51c1.56-.95,4.08-3,3.08-5.15-.86-1.83-3.57-2.42-5.37-2.71a20.61,20.61,0,0,0-5.71-.08,39.54,39.54,0,0,0-6.17,1.28c-2.13.59-4.26,1.22-6.33,2a24.43,24.43,0,0,0-5.93,3.25c-.17.14-.34-.25-.2-.38Z" style="fill:#455a64"></path></g></g><g id="freepik--Briefcase--inject-56"><g id="freepik--briefcase--inject-56"><path d="M90.61,378l1.32,42.42c.06,2.06-1.35,3.29-3.1,4.39l-4.38,2.72a4.3,4.3,0,0,1-3.47.8,9.53,9.53,0,0,1-2.41-.91.15.15,0,0,1-.09,0l-.25-.13L31.81,402.3a10.78,10.78,0,0,1-5.68-9.16l-1.2-38.63a3.07,3.07,0,0,1,1.31-2.44l7.48-4.63a3,3,0,0,1,2.76-.08l52.66,28.25a2.79,2.79,0,0,1,1,1A2.93,2.93,0,0,1,90.61,378Z" style="fill:#37474f"></path><path d="M90.61,378l1.32,42.42c.06,2.06-1.35,3.29-3.1,4.39l-4.38,2.72a4.3,4.3,0,0,1-3.47.8,9.53,9.53,0,0,1-2.41-.91h0c1.81.77,3.18-.2,3.11-2.3l-1.25-40a4.28,4.28,0,0,0-.67-2.05l10.4-6.44A2.93,2.93,0,0,1,90.61,378Z" style="fill:#263238"></path><path d="M80.44,385.1a4.68,4.68,0,0,0-2.21-3.56L28.46,354.83c-2-1.05-3.52-.09-3.45,2.14l1.12,36.17a10.76,10.76,0,0,0,5.68,9.16l46.42,24.91c2,1.05,3.52.09,3.45-2.14Z" style="fill:#455a64"></path><path d="M31.3,348.94l52.76,28.6a4.85,4.85,0,0,1,2.53,4.11L88,425.32l-.78.48-1.37-44.12a4.07,4.07,0,0,0-2.13-3.44L30.52,349.42Z" style="fill:#BA68C8"></path><path d="M85.87,379.26a4.75,4.75,0,0,1,.72,2.39L88,425.32l-.78.48-1.37-44.12a4.08,4.08,0,0,0-.61-2Z" style="opacity:0.2"></path><path d="M85.2,379.68a3.9,3.9,0,0,0-1.52-1.44L30.52,349.42l.78-.48,52.76,28.6a4.9,4.9,0,0,1,1.81,1.72" style="opacity:0.2"></path><path d="M49.87,353.79l.21,6.57-2.53,1.56-.27-8.72c0-.45.3-.64.69-.43Z" style="fill:#BA68C8"></path><path d="M49.87,353.79l.21,6.57-2.53,1.56-.27-8.72c0-.45.3-.64.69-.43Z" style="opacity:0.4"></path><path d="M68.13,359.72l.33,10.63-2.41,1.5-1.68-.9-.27-8.73a1.57,1.57,0,0,0-.74-1.2l-12.74-6.83L48,352.77c-.39-.21-.7,0-.69.43l.27,8.72-1.68-.9-.33-10.63a.61.61,0,0,1,0-.14,1.54,1.54,0,0,1,.66-1.1l1-.64a1.56,1.56,0,0,1,1.41-.05l18.75,10.06A1.55,1.55,0,0,1,68.13,359.72Z" style="fill:#BA68C8"></path><path d="M65.72,361.21l.33,10.64-1.68-.9-.27-8.73a1.57,1.57,0,0,0-.74-1.2l-12.74-6.83L48,352.77c-.39-.21-.7,0-.69.43l.27,8.72-1.68-.9-.33-10.63a.61.61,0,0,1,0-.14c.05-.35.33-.48.68-.29L65,360A1.56,1.56,0,0,1,65.72,361.21Z" style="opacity:0.2"></path></g></g><g id="freepik--speech-bubble--inject-56"><g id="freepik--speech-bubble--inject-56"><g id="freepik--speech-bubble--inject-56"><path d="M78.51,161.27a28.54,28.54,0,0,1,8.36,19.23l-.08,3.26a28.52,28.52,0,0,1-56.85.09l-.08-3.27a28.51,28.51,0,0,1,48.65-19.31Z" style="fill:#fff"></path><path d="M36.44,159.63a31,31,0,0,0,39.9,47.05l8.8,3.87a1.8,1.8,0,0,0,2.37-2.37l-3.9-8.8a31,31,0,0,0-47.17-39.75Zm42.07,1.64a28.54,28.54,0,0,1,8.36,19.23l-.08,3.26a28.52,28.52,0,0,1-56.85.09l-.08-3.27a28.51,28.51,0,0,1,48.65-19.31Z" style="fill:#455a64"></path><path d="M78.51,161.27a28.54,28.54,0,0,1,8.36,19.23l-.08,3.26a28.52,28.52,0,0,1-56.85.09l-.08-3.27a28.51,28.51,0,0,1,48.65-19.31Z" style="fill:#fff"></path></g><path d="M71.09,196.35q-3,3-8.64,3.88v5.55h-6v-5.35a31.84,31.84,0,0,1-7.11-1.28,20.33,20.33,0,0,1-5.55-2.53L47,189.31a22.35,22.35,0,0,0,11.57,3.46c3.8,0,5.7-1,5.7-2.86a2.37,2.37,0,0,0-1.62-2.23,30.14,30.14,0,0,0-5.24-1.52,50.17,50.17,0,0,1-6.6-1.83,11.09,11.09,0,0,1-4.56-3.13,8.44,8.44,0,0,1-1.9-5.81,10,10,0,0,1,3.1-7.38q3.1-3.07,9-3.78v-5.51h6v5.41a29.48,29.48,0,0,1,5.48,1,20.12,20.12,0,0,1,4.68,2l-3,7.36a20.44,20.44,0,0,0-9.71-2.7,8.2,8.2,0,0,0-4.31.87,2.64,2.64,0,0,0-1.35,2.28,2.26,2.26,0,0,0,1.6,2.11A29.69,29.69,0,0,0,61,178.45a48.76,48.76,0,0,1,6.63,1.82,11.54,11.54,0,0,1,4.56,3.11,8.32,8.32,0,0,1,1.93,5.78A9.94,9.94,0,0,1,71.09,196.35Z" style="fill:#BA68C8"></path><polygon points="78.59 160.39 37.29 201.82 39.22 203.88 80.41 162.56 78.59 160.39" style="fill:#455a64"></polygon></g></g></svg>